<?xml version="1.0" encoding="utf-8"?>
<!-- Generator: Adobe Illustrator 21.1.0, SVG Export Plug-In . SVG Version: 6.00 Build 0)  -->
<svg version="1.1" id="ONL-LOGO-BNYM-EGIS-KO" xmlns="http://www.w3.org/2000/svg" xmlns:xlink="http://www.w3.org/1999/xlink"
	 x="0px" y="0px" viewBox="0 0 218.2 27.6" style="enable-background:new 0 0 218.2 27.6;" xml:space="preserve">
<style type="text/css">
	.st0{fill:#FFFFFF;}
</style>
<g>
	<g>
		<rect x="141.6" y="0" class="st0" width="0.9" height="27.6"/>
	</g>
	<g>
		<path class="st0" d="M34.6,19.3H29v-0.7h1.3V9.1H29V8.4h5.3c2,0,3.1,0.9,3.1,2.6c0,1.6-1,2.5-2.8,2.5c2.2,0.1,3.4,1.1,3.4,2.9
			C38,18.2,36.7,19.3,34.6,19.3z M33.5,9.3h-1.1v3.9h1.2c1,0,1.7-0.9,1.7-2C35.2,10.1,34.6,9.3,33.5,9.3z M33.6,14.1h-1.2v4.3h1.1
			c1.5,0,2.3-0.7,2.3-2.1C35.8,15,34.9,14.1,33.6,14.1z"/>
		<path class="st0" d="M48.9,9.1v10.4h-1.2L42,11.4v7.2h1.3v0.7h-3.7v-0.7h1.4V9.9l-0.5-0.8h-1.2V8.4h3.3l5.3,7.6V9.1h-1.3V8.4h3.7
			v0.7H48.9z"/>
		<path class="st0" d="M59.9,9.1l-2.8,4.5v5h1.3v0.7h-4.6v-0.7H55V14l-3.3-4.9h-1V8.4h4.6v0.7h-1.2l2.3,3.6l2.2-3.6h-1.4V8.4h3.8
			v0.7H59.9z"/>
		<path class="st0" d="M75.5,19.3v-0.7h1.4v-7.1l-3.6,8l-4-7.8v7h1.4v0.7h-3.8v-0.7h1.4V9.1h-1.4V8.4h2.9l3.9,7.7l3.4-7.7h3.3v0.7
			h-1.4v9.5h1.4v0.7H75.5z"/>
		<path class="st0" d="M82.1,19.3v-0.7h1.3V9.1h-1.3V8.4h6.8V7.9h0.9v2.6h-0.9V9.4h-3.4v3.9h2.6v-1.1H89v3.3h-0.9v-1.2h-2.6v4.1h3.6
			v-1.2H90v2.2H82.1z"/>
		<path class="st0" d="M92.5,19.3v-0.7h1.3V9.1h-1.3V8.4h4.6v0.7h-1.2v9.2h3.5v-1.2h0.9v2.2H92.5z"/>
		<path class="st0" d="M101.5,19.3v-0.7h1.3V9.1h-1.3V8.4h4.6v0.7h-1.2v9.2h3.5v-1.2h0.9v2.2H101.5z"/>
		<path class="st0" d="M115.5,19.5c-3,0-5.4-2.5-5.4-5.7s2.4-5.6,5.4-5.6c3,0,5.5,2.5,5.5,5.6S118.6,19.5,115.5,19.5z M115.5,9.1
			c-1.6,0-3.1,2.2-3.1,4.7c0,2.5,1.5,4.7,3.1,4.7c1.7,0,3.1-2.2,3.1-4.7C118.7,11.4,117.2,9.1,115.5,9.1z"/>
		<path class="st0" d="M131.9,9.1v10.4h-1.2l-5.7-8.1v7.2h1.3v0.7h-3.7v-0.7h1.4V9.9l-0.5-0.8h-1.2V8.4h3.3l5.3,7.6V9.1h-1.3V8.4
			h3.7v0.7H131.9z"/>
	</g>
	<g>
		<g id="Icon_6_">
			<path class="st0" d="M21.4,13.8l-10.2-4c-2.2,1.2-4,2.6-5.5,4c1.5,1.4,3.3,2.8,5.5,4L21.4,13.8z"/>
			<path class="st0" d="M0,5.4c0,0,1.1,3.5,4.6,7.3c1.6-1.2,3.5-2.3,5.7-3.3L0,5.4z"/>
			<path class="st0" d="M0,22.1c0,0,1.1-3.5,4.6-7.3c1.6,1.2,3.5,2.3,5.7,3.3L0,22.1z"/>
		</g>
	</g>
	<g>
		<g>
			<path class="st0" d="M151.2,15.7V15h1.3V5.5h-1.3V4.8h6.8V4.4h0.9V7H158V5.8h-3.4v3.9h2.6V8.5h0.9v3.3h-0.9v-1.2h-2.6v4.1h3.6
				v-1.2h0.9v2.2H151.2z"/>
			<path class="st0" d="M167,15.7V15h1.2l-1-2.7h-4L162,15h1.3v0.7h-3.4V15h1l4.3-10.5h1l4.1,10.5h0.7v0.7H167z M165.1,7.2l-1.7,4.1
				h3.2L165.1,7.2z"/>
			<path class="st0" d="M181.6,12v3.3c-1.6,0.4-2.6,0.6-3.8,0.6c-3.6,0-6.2-2.4-6.2-5.7c0-2.4,1.5-4.6,3.7-5.3
				c0.7-0.2,1.6-0.4,2.4-0.4c1,0,1.6,0.1,2.7,0.5V4.5h0.9v2.9h-0.9V6.2c-0.8-0.4-1.5-0.6-2.5-0.6c-2.2,0-4,2.1-4,4.7
				c0,2.6,1.9,4.7,4.2,4.7c0.5,0,0.7,0,1.3-0.2V12h-1.4v-0.7h4.8V12H181.6z"/>
			<path class="st0" d="M184.1,15.7V15h1.3V5.5h-1.3V4.8h4.6v0.7h-1.2v9.2h3.5v-1.2h0.9v2.2H184.1z"/>
			<path class="st0" d="M192.9,15.7V15h1.3V5.5h-1.3V4.8h6.8V4.4h0.9V7h-0.9V5.8h-3.4v3.9h2.6V8.5h0.9v3.3h-0.9v-1.2h-2.6v4.1h3.6
				v-1.2h0.9v2.2H192.9z"/>
		</g>
		<g>
			<g>
				<g>
					<path class="st0" d="M151.6,23.2v-3.9h0.7v3.9H151.6z"/>
					<path class="st0" d="M156.1,23.2l-1.7-2.7v2.7h-0.7v-3.9h0.8l1.7,2.6v-2.6h0.7v3.9H156.1z"/>
					<path class="st0" d="M159.7,23.2H159l-1.3-3.9h0.8l0.9,3l0.9-3h0.7L159.7,23.2z"/>
					<path class="st0" d="M161.9,23.2v-3.9h2.8v0.6h-2.1v0.9h1.8v0.6h-1.8v1.1h2.1v0.6H161.9z"/>
					<path class="st0" d="M168.2,22.8c-0.3,0.3-0.8,0.4-1.2,0.4c-0.4,0-0.8-0.1-1.2-0.4c-0.2-0.2-0.4-0.5-0.4-0.9h0.7
						c0,0.2,0.1,0.4,0.2,0.5c0.2,0.2,0.4,0.2,0.7,0.2c0.3,0,0.5-0.1,0.7-0.2c0.1-0.1,0.2-0.2,0.2-0.4c0-0.3-0.2-0.4-0.5-0.5
						c-0.3,0-0.6-0.1-0.9-0.1c-0.5-0.1-1-0.4-1-1.1c0-0.3,0.1-0.6,0.3-0.8c0.3-0.3,0.7-0.4,1.1-0.4c0.4,0,0.8,0.1,1.1,0.4
						c0.2,0.2,0.4,0.5,0.4,0.8h-0.7c0-0.1-0.1-0.3-0.2-0.4c-0.1-0.1-0.4-0.2-0.6-0.2c-0.2,0-0.5,0-0.6,0.2c-0.1,0.1-0.1,0.2-0.1,0.3
						c0,0.3,0.2,0.4,0.4,0.4c0.2,0,0.6,0.1,0.8,0.1c0.6,0.1,1.1,0.5,1.1,1.1C168.6,22.4,168.4,22.6,168.2,22.8z"/>
					<path class="st0" d="M170.9,19.9v3.2h-0.7v-3.2h-1.2v-0.7h3v0.7H170.9z"/>
					<path class="st0" d="M176.2,23.2v-2.8l-1,2.7h-0.5l-1-2.8v2.8H173v-3.9h1l1,2.8l1-2.8h0.9v3.9H176.2z"/>
					<path class="st0" d="M178.2,23.2v-3.9h2.8v0.6H179v0.9h1.8v0.6H179v1.1h2.1v0.6H178.2z"/>
					<path class="st0" d="M184.5,23.2l-1.7-2.7v2.7h-0.7v-3.9h0.8l1.7,2.6v-2.6h0.7v3.9H184.5z"/>
					<path class="st0" d="M188,19.9v3.2h-0.7v-3.2h-1.2v-0.7h3v0.7H188z"/>
					<path class="st0" d="M194,22.8c-0.3,0.3-0.8,0.4-1.2,0.4c-0.4,0-0.8-0.1-1.2-0.4c-0.2-0.2-0.4-0.5-0.4-0.9h0.7
						c0,0.2,0.1,0.4,0.2,0.5c0.2,0.2,0.4,0.2,0.7,0.2c0.3,0,0.5-0.1,0.7-0.2c0.1-0.1,0.2-0.2,0.2-0.4c0-0.3-0.2-0.4-0.5-0.5
						c-0.3,0-0.6-0.1-0.9-0.1c-0.5-0.1-1-0.4-1-1.1c0-0.3,0.1-0.6,0.3-0.8c0.3-0.3,0.7-0.4,1.1-0.4c0.4,0,0.8,0.1,1.1,0.4
						c0.2,0.2,0.4,0.5,0.4,0.8h-0.7c0-0.1-0.1-0.3-0.2-0.4c-0.1-0.1-0.4-0.2-0.6-0.2c-0.2,0-0.5,0-0.6,0.2c-0.1,0.1-0.1,0.2-0.1,0.3
						c0,0.3,0.2,0.4,0.4,0.4c0.2,0,0.6,0.1,0.8,0.1c0.6,0.1,1.1,0.5,1.1,1.1C194.3,22.4,194.2,22.6,194,22.8z"/>
					<path class="st0" d="M196.8,21.7v1.5h-0.7v-1.5l-1.4-2.4h0.8l1,1.7l1-1.7h0.7L196.8,21.7z"/>
					<path class="st0" d="M201.4,22.8c-0.3,0.3-0.8,0.4-1.2,0.4c-0.4,0-0.8-0.1-1.2-0.4c-0.2-0.2-0.4-0.5-0.4-0.9h0.7
						c0,0.2,0.1,0.4,0.2,0.5c0.2,0.2,0.4,0.2,0.7,0.2c0.3,0,0.5-0.1,0.7-0.2c0.1-0.1,0.2-0.2,0.2-0.4c0-0.3-0.2-0.4-0.5-0.5
						c-0.3,0-0.6-0.1-0.9-0.1c-0.5-0.1-1-0.4-1-1.1c0-0.3,0.1-0.6,0.3-0.8c0.3-0.3,0.7-0.4,1.1-0.4c0.4,0,0.8,0.1,1.1,0.4
						c0.2,0.2,0.4,0.5,0.4,0.8H201c0-0.1-0.1-0.3-0.2-0.4c-0.1-0.1-0.4-0.2-0.6-0.2c-0.2,0-0.5,0-0.6,0.2c-0.1,0.1-0.1,0.2-0.1,0.3
						c0,0.3,0.2,0.4,0.4,0.4c0.2,0,0.6,0.1,0.8,0.1c0.6,0.1,1.1,0.5,1.1,1.1C201.8,22.4,201.6,22.6,201.4,22.8z"/>
					<path class="st0" d="M204.2,19.9v3.2h-0.7v-3.2h-1.2v-0.7h3v0.7H204.2z"/>
					<path class="st0" d="M206.2,23.2v-3.9h2.8v0.6h-2.1v0.9h1.8v0.6h-1.8v1.1h2.1v0.6H206.2z"/>
					<path class="st0" d="M213.3,23.2v-2.8l-1,2.7h-0.5l-1-2.8v2.8h-0.7v-3.9h1l1,2.8l1-2.8h0.9v3.9H213.3z"/>
					<path class="st0" d="M217.8,22.8c-0.3,0.3-0.8,0.4-1.2,0.4c-0.4,0-0.8-0.1-1.2-0.4c-0.2-0.2-0.4-0.5-0.4-0.9h0.7
						c0,0.2,0.1,0.4,0.2,0.5c0.2,0.2,0.4,0.2,0.7,0.2c0.3,0,0.5-0.1,0.7-0.2c0.1-0.1,0.2-0.2,0.2-0.4c0-0.3-0.2-0.4-0.5-0.5
						c-0.3,0-0.6-0.1-0.9-0.1c-0.5-0.1-1-0.4-1-1.1c0-0.3,0.1-0.6,0.3-0.8c0.3-0.3,0.7-0.4,1.1-0.4c0.4,0,0.8,0.1,1.1,0.4
						c0.2,0.2,0.4,0.5,0.4,0.8h-0.7c0-0.1-0.1-0.3-0.2-0.4c-0.1-0.1-0.4-0.2-0.6-0.2c-0.2,0-0.5,0-0.6,0.2c-0.1,0.1-0.1,0.2-0.1,0.3
						c0,0.3,0.2,0.4,0.4,0.4c0.2,0,0.6,0.1,0.8,0.1c0.6,0.1,1.1,0.5,1.1,1.1C218.2,22.4,218,22.6,217.8,22.8z"/>
				</g>
			</g>
		</g>
	</g>
</g>
</svg>
