<?xml version="1.0" encoding="UTF-8"?>
<svg width="430px" height="177px" viewBox="0 0 430 177" version="1.1" xmlns="http://www.w3.org/2000/svg" xmlns:xlink="http://www.w3.org/1999/xlink">
    <!-- Generator: Sketch 49.1 (51147) - http://www.bohemiancoding.com/sketch -->
    <title>AC</title>
    <desc>Created with Sketch.</desc>
    <defs>
        <linearGradient x1="50%" y1="0%" x2="50%" y2="100%" id="linearGradient-1">
            <stop stop-color="#690787" offset="0%"></stop>
            <stop stop-color="#9B31BE" offset="100%"></stop>
        </linearGradient>
        <path d="M252.284884,177 L0.284883992,177 L177.284884,-2.84217094e-14 L429.284884,0 L252.284884,177 Z" id="path-2"></path>
        <linearGradient x1="50%" y1="100%" x2="50%" y2="16.6535643%" id="linearGradient-4">
            <stop stop-color="#690787" offset="0%"></stop>
            <stop stop-color="#9B31BE" offset="100%"></stop>
        </linearGradient>
        <linearGradient x1="3.061617e-15%" y1="50%" x2="100%" y2="50%" id="linearGradient-5">
            <stop stop-color="#690787" offset="0%"></stop>
            <stop stop-color="#9B31BE" offset="100%"></stop>
        </linearGradient>
        <path d="M297.284884,132 L252.284884,177 L0.284883992,177 L45.284884,132 L297.284884,132 Z" id="path-6"></path>
    </defs>
    <g id="Comps-5" stroke="none" stroke-width="1" fill="none" fill-rule="evenodd">
        <g id="Landing" transform="translate(-380.000000, -308.000000)">
            <g id="AC" transform="translate(380.000000, 308.000000)">
                <g id="Combined">
                    <mask id="mask-3" fill="white">
                        <use xlink:href="#path-2"></use>
                    </mask>
                    <use id="Mask" fill="url(#linearGradient-1)" xlink:href="#path-2"></use>
                    <path d="M170.59045,113.695878 L118.625118,113.695878 L101.571896,153.710526 L59.6773645,153.710526 L152.865841,-41.7972862 L188.180782,-41.7972862 L213.827755,153.710526 L173.947384,153.710526 L170.59045,113.695878 Z M132.724239,80.7979287 L167.904904,80.7979287 L162.399532,11.5108193 L132.724239,80.7979287 Z M355.186642,88.4517373 C354.022899,98.6568664 351.516414,107.966669 347.667111,116.381425 C343.817807,124.79618 338.782457,132.002326 332.560909,138.000077 C326.339361,143.997828 318.931802,148.63035 310.338009,151.897782 C301.744216,155.165214 292.165861,156.664629 281.602657,156.396073 C273.725014,156.217036 266.78742,154.986172 260.789669,152.703446 C254.791918,150.42072 249.644671,147.309993 245.347775,143.371171 C241.050878,139.432349 237.537323,134.799827 234.807003,129.473466 C232.076683,124.147105 230.017785,118.417995 228.630245,112.285966 C227.242706,106.153936 226.459429,99.7310677 226.280392,93.0171669 C226.101354,86.3032662 226.459424,79.5447075 227.354611,72.741288 L232.45715,39.4405068 C234.068486,28.6087469 236.798764,18.0904602 240.648068,7.885331 C244.497371,-2.31979815 249.644617,-11.3386695 256.089962,-19.1715538 C262.535307,-27.004438 270.368074,-33.248272 279.588497,-37.9032432 C288.808921,-42.5582144 299.551001,-44.7513891 311.81506,-44.4828331 C322.288745,-44.3037957 331.106202,-42.379173 338.267696,-38.7089073 C345.429191,-35.0386415 351.247817,-30.0928088 355.723751,-23.8712608 C360.199685,-17.6497128 363.422309,-10.35405 365.39172,-1.98405376 C367.361131,6.38594251 368.345821,15.3152966 368.345821,24.8042763 L329.539669,24.669999 C329.808225,20.1045465 329.897743,15.6734384 329.808224,11.3765419 C329.718705,7.07964546 329.047325,3.25277943 327.794064,-0.10417095 C326.540802,-3.46112133 324.414766,-6.21377935 321.41589,-8.36222759 C318.417014,-10.5106758 314.18732,-11.6744012 308.726681,-11.8534385 C303.982191,-12.0324759 299.819635,-11.4282339 296.238888,-10.0406944 C292.658141,-8.6531549 289.547413,-6.68377355 286.906613,-4.13249126 C284.265812,-1.58120897 282.050258,1.39524238 280.259884,4.7969521 C278.46951,8.19866181 276.970095,11.8017345 275.761593,15.6062783 C274.553091,19.410822 273.5684,23.3495847 272.807491,27.4226845 C272.046583,31.4957843 271.442341,35.4121677 270.994747,39.1719521 L266.160763,72.8755654 C265.802688,75.9192004 265.39986,79.2761004 264.952267,82.9463662 C264.504673,86.6166319 264.213742,90.3092219 264.079464,94.024247 C263.945186,97.7392721 264.124221,101.342345 264.616573,104.833573 C265.108926,108.324802 266.093617,111.457908 267.570675,114.232987 C269.047733,117.008066 271.151391,119.268379 273.88171,121.013993 C276.61203,122.759607 280.170344,123.721919 284.556759,123.900956 C290.285954,124.169512 295.075132,123.408615 298.924435,121.618241 C302.773738,119.827868 305.929224,117.343762 308.390988,114.165849 C310.852751,110.987936 312.777374,107.205828 314.164913,102.819413 C315.552453,98.4329979 316.64904,93.7333378 317.454708,88.7202919 L355.186642,88.4517373 Z" id="AC" fill="url(#linearGradient-4)" mask="url(#mask-3)"></path>
                    <mask id="mask-7" fill="white">
                        <use xlink:href="#path-6"></use>
                    </mask>
                    <use id="Combined-Shape" fill="url(#linearGradient-5)" xlink:href="#path-6"></use>
                </g>
                <path d="M46.34375,159.671875 L43.2109375,159.671875 L42.6015625,162 L40.171875,162 L43.7265625,150.625 L45.828125,150.625 L49.40625,162 L46.953125,162 L46.34375,159.671875 Z M43.7109375,157.757812 L45.8359375,157.757812 L44.7734375,153.703125 L43.7109375,157.757812 Z M58.1796875,158.210938 C58.1223955,159.507819 57.7578159,160.48958 57.0859375,161.15625 C56.4140591,161.82292 55.466152,162.15625 54.2421875,162.15625 C53.611976,162.15625 53.0494816,162.052084 52.5546875,161.84375 C52.0598934,161.635416 51.6432309,161.325523 51.3046875,160.914062 C50.9661441,160.502602 50.7070321,159.993493 50.5273438,159.386719 C50.3476554,158.779945 50.2578125,158.080733 50.2578125,157.289062 L50.2578125,155.351562 C50.2578125,154.559892 50.3502595,153.859378 50.5351562,153.25 C50.720053,152.640622 50.9869774,152.13021 51.3359375,151.71875 C51.6848976,151.30729 52.1067684,150.996095 52.6015625,150.785156 C53.0963566,150.574218 53.6536427,150.46875 54.2734375,150.46875 C55.513027,150.46875 56.4544239,150.815101 57.0976562,151.507812 C57.7408886,152.200524 58.1067704,153.195306 58.1953125,154.492188 L55.890625,154.492188 C55.8802083,154.085935 55.8450524,153.746095 55.7851562,153.472656 C55.7252601,153.199217 55.6328131,152.981772 55.5078125,152.820312 C55.3828119,152.658853 55.2200531,152.544271 55.0195312,152.476562 C54.8190094,152.408854 54.570314,152.375 54.2734375,152.375 C53.9661443,152.375 53.7044282,152.427083 53.4882812,152.53125 C53.2721343,152.635417 53.0963548,152.803384 52.9609375,153.035156 C52.8255202,153.266928 52.7252607,153.571613 52.6601562,153.949219 C52.5950518,154.326825 52.5625,154.78906 52.5625,155.335938 L52.5625,157.289062 C52.5625,157.820315 52.5885414,158.273436 52.640625,158.648438 C52.6927086,159.023439 52.7838535,159.329426 52.9140625,159.566406 C53.0442715,159.803387 53.2161448,159.976562 53.4296875,160.085938 C53.6432302,160.195313 53.9140609,160.25 54.2421875,160.25 C54.5234389,160.25 54.7643219,160.220052 54.9648438,160.160156 C55.1653656,160.10026 55.3307285,159.994792 55.4609375,159.84375 C55.5911465,159.692708 55.6901038,159.484376 55.7578125,159.21875 C55.8255212,158.953124 55.8671874,158.61719 55.8828125,158.210938 L58.1796875,158.210938 Z M67.3046875,158.210938 C67.2473955,159.507819 66.8828159,160.48958 66.2109375,161.15625 C65.5390591,161.82292 64.591152,162.15625 63.3671875,162.15625 C62.736976,162.15625 62.1744816,162.052084 61.6796875,161.84375 C61.1848934,161.635416 60.7682309,161.325523 60.4296875,160.914062 C60.0911441,160.502602 59.8320321,159.993493 59.6523438,159.386719 C59.4726554,158.779945 59.3828125,158.080733 59.3828125,157.289062 L59.3828125,155.351562 C59.3828125,154.559892 59.4752595,153.859378 59.6601562,153.25 C59.845053,152.640622 60.1119774,152.13021 60.4609375,151.71875 C60.8098976,151.30729 61.2317684,150.996095 61.7265625,150.785156 C62.2213566,150.574218 62.7786427,150.46875 63.3984375,150.46875 C64.638027,150.46875 65.5794239,150.815101 66.2226562,151.507812 C66.8658886,152.200524 67.2317704,153.195306 67.3203125,154.492188 L65.015625,154.492188 C65.0052083,154.085935 64.9700524,153.746095 64.9101562,153.472656 C64.8502601,153.199217 64.7578131,152.981772 64.6328125,152.820312 C64.5078119,152.658853 64.3450531,152.544271 64.1445312,152.476562 C63.9440094,152.408854 63.695314,152.375 63.3984375,152.375 C63.0911443,152.375 62.8294282,152.427083 62.6132812,152.53125 C62.3971343,152.635417 62.2213548,152.803384 62.0859375,153.035156 C61.9505202,153.266928 61.8502607,153.571613 61.7851562,153.949219 C61.7200518,154.326825 61.6875,154.78906 61.6875,155.335938 L61.6875,157.289062 C61.6875,157.820315 61.7135414,158.273436 61.765625,158.648438 C61.8177086,159.023439 61.9088535,159.329426 62.0390625,159.566406 C62.1692715,159.803387 62.3411448,159.976562 62.5546875,160.085938 C62.7682302,160.195313 63.0390609,160.25 63.3671875,160.25 C63.6484389,160.25 63.8893219,160.220052 64.0898438,160.160156 C64.2903656,160.10026 64.4557285,159.994792 64.5859375,159.84375 C64.7161465,159.692708 64.8151038,159.484376 64.8828125,159.21875 C64.9505212,158.953124 64.9921874,158.61719 65.0078125,158.210938 L67.3046875,158.210938 Z M76.7265625,157.335938 C76.7265625,158.132816 76.6276052,158.83333 76.4296875,159.4375 C76.2317698,160.04167 75.9544289,160.544269 75.5976562,160.945312 C75.2408836,161.346356 74.8112004,161.648436 74.3085938,161.851562 C73.8059871,162.054689 73.250003,162.15625 72.640625,162.15625 C72.031247,162.15625 71.4739609,162.054689 70.96875,161.851562 C70.4635391,161.648436 70.0299497,161.346356 69.6679688,160.945312 C69.3059878,160.544269 69.0247406,160.04167 68.8242188,159.4375 C68.6236969,158.83333 68.5234375,158.132816 68.5234375,157.335938 L68.5234375,155.445312 C68.5234375,154.6276 68.6223948,153.907555 68.8203125,153.285156 C69.0182302,152.662757 69.2968732,152.143231 69.65625,151.726562 C70.0156268,151.309894 70.4479141,150.996095 70.953125,150.785156 C71.4583359,150.574218 72.015622,150.46875 72.625,150.46875 C73.234378,150.46875 73.7903621,150.574218 74.2929688,150.785156 C74.7955754,150.996095 75.2278628,151.309894 75.5898438,151.726562 C75.9518247,152.143231 76.2317698,152.662757 76.4296875,153.285156 C76.6276052,153.907555 76.7265625,154.6276 76.7265625,155.445312 L76.7265625,157.335938 Z M74.421875,155.429688 C74.421875,154.888018 74.3828129,154.425783 74.3046875,154.042969 C74.2265621,153.660154 74.1119799,153.346355 73.9609375,153.101562 C73.8098951,152.85677 73.622397,152.677084 73.3984375,152.5625 C73.174478,152.447916 72.9166681,152.390625 72.625,152.390625 C72.3281235,152.390625 72.0677095,152.447916 71.84375,152.5625 C71.6197905,152.677084 71.4322924,152.85677 71.28125,153.101562 C71.1302076,153.346355 71.0156254,153.660154 70.9375,154.042969 C70.8593746,154.425783 70.8203125,154.888018 70.8203125,155.429688 L70.8203125,157.335938 C70.8203125,157.851565 70.8593746,158.292967 70.9375,158.660156 C71.0156254,159.027346 71.1315096,159.328124 71.2851562,159.5625 C71.4388029,159.796876 71.6289051,159.968749 71.8554688,160.078125 C72.0820324,160.187501 72.3437485,160.242188 72.640625,160.242188 C72.9322931,160.242188 73.188801,160.187501 73.4101562,160.078125 C73.6315115,159.968749 73.8177076,159.796876 73.96875,159.5625 C74.1197924,159.328124 74.2330725,159.027346 74.3085938,158.660156 C74.384115,158.292967 74.421875,157.851565 74.421875,157.335938 L74.421875,155.429688 Z M85.7734375,150.625 L85.7734375,158.4375 C85.7734375,159.098962 85.6809905,159.66406 85.4960938,160.132812 C85.311197,160.601565 85.0533871,160.985676 84.7226562,161.285156 C84.3919254,161.584637 83.9973981,161.804687 83.5390625,161.945312 C83.0807269,162.085938 82.5807319,162.15625 82.0390625,162.15625 C81.4869764,162.15625 80.9804711,162.085938 80.5195312,161.945312 C80.0585914,161.804687 79.6627621,161.584637 79.3320312,161.285156 C79.0013004,160.985676 78.7434905,160.601565 78.5585938,160.132812 C78.373697,159.66406 78.28125,159.098962 78.28125,158.4375 L78.28125,150.625 L80.59375,150.625 L80.59375,158.4375 C80.59375,158.812502 80.6249997,159.117186 80.6875,159.351562 C80.7500003,159.585939 80.8424473,159.769531 80.9648438,159.902344 C81.0872402,160.035157 81.2382804,160.126302 81.4179688,160.175781 C81.5976571,160.225261 81.8046863,160.25 82.0390625,160.25 C82.2734387,160.25 82.4804679,160.225261 82.6601562,160.175781 C82.8398446,160.126302 82.9895827,160.035157 83.109375,159.902344 C83.2291673,159.769531 83.3203122,159.585939 83.3828125,159.351562 C83.4453128,159.117186 83.4765625,158.812502 83.4765625,158.4375 L83.4765625,150.625 L85.7734375,150.625 Z M95.46875,162 L93.171875,162 L89.8125,154.539062 L89.8125,162 L87.515625,162 L87.515625,150.625 L89.8125,150.625 L93.1796875,158.09375 L93.1796875,150.625 L95.46875,150.625 L95.46875,162 Z M104.679688,152.539062 L101.867188,152.539062 L101.867188,162 L99.5625,162 L99.5625,152.539062 L96.796875,152.539062 L96.796875,150.625 L104.679688,150.625 L104.679688,152.539062 Z M108.398438,162 L106.101563,162 L106.101563,150.625 L108.398438,150.625 L108.398438,162 Z M118.28125,162 L115.984375,162 L112.625,154.539062 L112.625,162 L110.328125,162 L110.328125,150.625 L112.625,150.625 L115.992188,158.09375 L115.992188,150.625 L118.28125,150.625 L118.28125,162 Z M127.859375,160.710938 C127.739583,160.841146 127.578126,160.989583 127.375,161.15625 C127.171874,161.322917 126.91797,161.480468 126.613281,161.628906 C126.308592,161.777344 125.950523,161.902343 125.539062,162.003906 C125.127602,162.105469 124.653649,162.15625 124.117188,162.15625 C123.481768,162.15625 122.908857,162.057293 122.398438,161.859375 C121.888018,161.661457 121.450523,161.361981 121.085938,160.960938 C120.721352,160.559894 120.441407,160.053388 120.246094,159.441406 C120.05078,158.829424 119.953125,158.109379 119.953125,157.28125 L119.953125,155.359375 C119.953125,154.531246 120.046874,153.811201 120.234375,153.199219 C120.421876,152.587237 120.6888,152.078127 121.035156,151.671875 C121.381512,151.265623 121.803383,150.963543 122.300781,150.765625 C122.79818,150.567707 123.356768,150.46875 123.976562,150.46875 C124.622399,150.46875 125.179685,150.549478 125.648438,150.710938 C126.11719,150.872397 126.507811,151.11328 126.820312,151.433594 C127.132814,151.753908 127.372395,152.149737 127.539062,152.621094 C127.70573,153.09245 127.8125,153.635414 127.859375,154.25 L125.625,154.25 C125.59375,153.890623 125.542969,153.591147 125.472656,153.351562 C125.402343,153.111978 125.303386,152.920574 125.175781,152.777344 C125.048176,152.634114 124.891928,152.53125 124.707031,152.46875 C124.522134,152.40625 124.302085,152.375 124.046875,152.375 C123.74479,152.375 123.481772,152.428385 123.257812,152.535156 C123.033853,152.641928 122.847657,152.813801 122.699219,153.050781 C122.550781,153.287762 122.440105,153.59505 122.367188,153.972656 C122.29427,154.350262 122.257812,154.807289 122.257812,155.34375 L122.257812,157.28125 C122.257812,157.822919 122.298177,158.281248 122.378906,158.65625 C122.459636,159.031252 122.58203,159.337238 122.746094,159.574219 C122.910157,159.811199 123.117186,159.983072 123.367188,160.089844 C123.617189,160.196615 123.911457,160.25 124.25,160.25 C124.453126,160.25 124.626301,160.234375 124.769531,160.203125 C124.912761,160.171875 125.035156,160.134115 125.136719,160.089844 C125.238282,160.045573 125.321614,160 125.386719,159.953125 C125.451823,159.90625 125.507812,159.867188 125.554688,159.835938 L125.554688,157.75 L123.945312,157.75 L123.945312,156.015625 L127.859375,156.015625 L127.859375,160.710938 Z" id="ACCOUNTING" fill="#FFFFFF"></path>
            </g>
        </g>
    </g>
</svg>