<?xml version="1.0" encoding="UTF-8"?>
<svg width="430px" height="177px" viewBox="0 0 430 177" version="1.1" xmlns="http://www.w3.org/2000/svg" xmlns:xlink="http://www.w3.org/1999/xlink">
    <!-- Generator: Sketch 50.2 (55047) - http://www.bohemiancoding.com/sketch -->
    <title>IC</title>
    <desc>Created with Sketch.</desc>
    <defs>
        <linearGradient x1="48.2208531%" y1="87.1667549%" x2="46.4361794%" y2="19.8137359%" id="linearGradient-1">
            <stop stop-color="#255DEA" offset="0%"></stop>
            <stop stop-color="#002FA9" offset="100%"></stop>
        </linearGradient>
        <path d="M252.284884,177 L0.284883992,177 L177.284884,-2.84217094e-14 L429.284884,0 L252.284884,177 Z" id="path-2"></path>
        <linearGradient x1="44.286233%" y1="8.27226419%" x2="44.2862332%" y2="92.1530843%" id="linearGradient-4">
            <stop stop-color="#255DEA" offset="0%"></stop>
            <stop stop-color="#002FA9" offset="100%"></stop>
        </linearGradient>
        <linearGradient x1="99.2197214%" y1="49.8535407%" x2="0.780278591%" y2="49.8535407%" id="linearGradient-5">
            <stop stop-color="#255DEA" offset="0%"></stop>
            <stop stop-color="#002FA9" offset="100%"></stop>
        </linearGradient>
        <path d="M297.284884,132 L252.284884,177 L0.284883992,177 L45.284884,132 L297.284884,132 Z" id="path-6"></path>
    </defs>
    <g id="Comps-3" stroke="none" stroke-width="1" fill="none" fill-rule="evenodd">
        <g id="Landing" transform="translate(-250.000000, -308.000000)">
            <g id="IC" transform="translate(250.000000, 308.000000)">
                <g id="Combined">
                    <mask id="mask-3" fill="white">
                        <use xlink:href="#path-2"></use>
                    </mask>
                    <use id="Mask" fill="url(#linearGradient-1)" xlink:href="#path-2"></use>
                    <path d="M157.070556,154 L118.532958,154 L152.505126,-41.5078125 L191.042724,-41.5078125 L157.070556,154 Z M322.079833,88.7412109 C320.91609,98.9463401 318.409605,108.256143 314.560302,116.670898 C310.710999,125.085654 305.675649,132.291799 299.454101,138.289551 C293.232552,144.287302 285.824993,148.919824 277.2312,152.187256 C268.637407,155.454688 259.059052,156.954103 248.495849,156.685547 C240.618205,156.50651 233.680612,155.275646 227.68286,152.99292 C221.685109,150.710194 216.537862,147.599466 212.240966,143.660645 C207.944069,139.721823 204.430514,135.089301 201.700194,129.762939 C198.969875,124.436578 196.910976,118.707469 195.523436,112.575439 C194.135897,106.44341 193.35262,100.020541 193.173583,93.3066406 C192.994546,86.5927399 193.352615,79.8341812 194.247802,73.0307617 L199.350341,39.7299805 C200.961677,28.8982206 203.691956,18.3799338 207.541259,8.17480469 C211.390562,-2.03032446 216.537809,-11.0491959 222.983153,-18.8820801 C229.428498,-26.7149643 237.261265,-32.9587983 246.481688,-37.6137695 C255.702112,-42.2687407 266.444192,-44.4619154 278.708251,-44.1933594 C289.181936,-44.014322 297.999393,-42.0896993 305.160888,-38.4194336 C312.322382,-34.7491678 318.141008,-29.8033351 322.616942,-23.5817871 C327.092876,-17.3602391 330.3155,-10.0645764 332.284911,-1.69458008 C334.254322,6.6754162 335.239013,15.6047703 335.239013,25.09375 L296.43286,24.9594727 C296.701416,20.3940201 296.790934,15.9629121 296.701415,11.6660156 C296.611896,7.36911914 295.940516,3.54225311 294.687255,0.185302734 C293.433993,-3.17164764 291.307957,-5.92430566 288.309081,-8.07275391 C285.310205,-10.2212021 281.080511,-11.3849275 275.619872,-11.5639648 C270.875382,-11.7430022 266.712826,-11.1387602 263.132079,-9.7512207 C259.551332,-8.36368121 256.440605,-6.39429987 253.799804,-3.84301758 C251.159003,-1.29173529 248.943449,1.68471606 247.153075,5.08642578 C245.362702,8.4881355 243.863286,12.0912082 242.654784,15.895752 C241.446282,19.7002957 240.461591,23.6390584 239.700683,27.7121582 C238.939774,31.785258 238.335532,35.7016414 237.887938,39.4614258 L233.053954,73.1650391 C232.695879,76.2086741 232.293051,79.5655741 231.845458,83.2358398 C231.397865,86.9061056 231.106933,90.5986956 230.972655,94.3137207 C230.838377,98.0287458 231.017412,101.631818 231.509765,105.123047 C232.002117,108.614275 232.986808,111.747382 234.463866,114.522461 C235.940924,117.29754 238.044582,119.557853 240.774901,121.303467 C243.505221,123.049081 247.063535,124.011392 251.44995,124.19043 C257.179145,124.458986 261.968323,123.698088 265.817626,121.907715 C269.666929,120.117341 272.822415,117.633235 275.284179,114.455322 C277.745942,111.277409 279.670565,107.495302 281.058104,103.108887 C282.445644,98.7224716 283.542231,94.0228115 284.347899,89.0097656 L322.079833,88.7412109 Z" id="IC" fill="url(#linearGradient-4)" mask="url(#mask-3)"></path>
                </g>
                <mask id="mask-7" fill="white">
                    <use xlink:href="#path-6"></use>
                </mask>
                <use id="Combined-Shape" fill="url(#linearGradient-5)" xlink:href="#path-6"></use>
                <path d="M47.3125,162 L45.015625,162 L45.015625,150.625 L47.3125,150.625 L47.3125,162 Z M57.1953125,162 L54.8984375,162 L51.5390625,154.539062 L51.5390625,162 L49.2421875,162 L49.2421875,150.625 L51.5390625,150.625 L54.90625,158.09375 L54.90625,150.625 L57.1953125,150.625 L57.1953125,162 Z M64.90625,157.359375 L61.3359375,157.359375 L61.3359375,162 L59.0390625,162 L59.0390625,150.625 L65.3359375,150.625 L65.3359375,152.539062 L61.3359375,152.539062 L61.3359375,155.453125 L64.90625,155.453125 L64.90625,157.359375 Z M74.65625,157.335938 C74.65625,158.132816 74.5572927,158.83333 74.359375,159.4375 C74.1614573,160.04167 73.8841164,160.544269 73.5273438,160.945312 C73.1705711,161.346356 72.7408879,161.648436 72.2382812,161.851562 C71.7356746,162.054689 71.1796905,162.15625 70.5703125,162.15625 C69.9609345,162.15625 69.4036484,162.054689 68.8984375,161.851562 C68.3932266,161.648436 67.9596372,161.346356 67.5976562,160.945312 C67.2356753,160.544269 66.9544281,160.04167 66.7539062,159.4375 C66.5533844,158.83333 66.453125,158.132816 66.453125,157.335938 L66.453125,155.445312 C66.453125,154.6276 66.5520823,153.907555 66.75,153.285156 C66.9479177,152.662757 67.2265607,152.143231 67.5859375,151.726562 C67.9453143,151.309894 68.3776016,150.996095 68.8828125,150.785156 C69.3880234,150.574218 69.9453095,150.46875 70.5546875,150.46875 C71.1640655,150.46875 71.7200496,150.574218 72.2226562,150.785156 C72.7252629,150.996095 73.1575503,151.309894 73.5195312,151.726562 C73.8815122,152.143231 74.1614573,152.662757 74.359375,153.285156 C74.5572927,153.907555 74.65625,154.6276 74.65625,155.445312 L74.65625,157.335938 Z M72.3515625,155.429688 C72.3515625,154.888018 72.3125004,154.425783 72.234375,154.042969 C72.1562496,153.660154 72.0416674,153.346355 71.890625,153.101562 C71.7395826,152.85677 71.5520845,152.677084 71.328125,152.5625 C71.1041655,152.447916 70.8463556,152.390625 70.5546875,152.390625 C70.257811,152.390625 69.997397,152.447916 69.7734375,152.5625 C69.549478,152.677084 69.3619799,152.85677 69.2109375,153.101562 C69.0598951,153.346355 68.9453129,153.660154 68.8671875,154.042969 C68.7890621,154.425783 68.75,154.888018 68.75,155.429688 L68.75,157.335938 C68.75,157.851565 68.7890621,158.292967 68.8671875,158.660156 C68.9453129,159.027346 69.0611971,159.328124 69.2148438,159.5625 C69.3684904,159.796876 69.5585926,159.968749 69.7851562,160.078125 C70.0117199,160.187501 70.273436,160.242188 70.5703125,160.242188 C70.8619806,160.242188 71.1184885,160.187501 71.3398438,160.078125 C71.561199,159.968749 71.7473951,159.796876 71.8984375,159.5625 C72.0494799,159.328124 72.16276,159.027346 72.2382812,158.660156 C72.3138025,158.292967 72.3515625,157.851565 72.3515625,157.335938 L72.3515625,155.429688 Z M79.75,157.84375 L78.609375,157.84375 L78.609375,162 L76.3125,162 L76.3125,150.625 L79.9765625,150.625 C80.5442737,150.625 81.050779,150.699218 81.4960938,150.847656 C81.9414085,150.996094 82.3190089,151.214842 82.6289062,151.503906 C82.9388036,151.79297 83.1757804,152.15104 83.3398438,152.578125 C83.5039071,153.00521 83.5859375,153.499997 83.5859375,154.0625 C83.5859375,154.47396 83.5481775,154.84505 83.4726562,155.175781 C83.397135,155.506512 83.2877611,155.80078 83.1445312,156.058594 C83.0013014,156.316408 82.828126,156.541666 82.625,156.734375 C82.421874,156.927084 82.1927096,157.093749 81.9375,157.234375 L83.9296875,161.890625 L83.9296875,162 L81.4609375,162 L79.75,157.84375 Z M78.609375,155.929688 L79.9140625,155.929688 C80.3723981,155.929688 80.7161447,155.777345 80.9453125,155.472656 C81.1744803,155.167967 81.2890625,154.760419 81.2890625,154.25 C81.2890625,153.989582 81.2643232,153.753907 81.2148438,153.542969 C81.1653643,153.33203 81.0872401,153.152344 80.9804688,153.003906 C80.8736974,152.855468 80.73698,152.740886 80.5703125,152.660156 C80.403645,152.579427 80.2057303,152.539062 79.9765625,152.539062 L78.609375,152.539062 L78.609375,155.929688 Z M88.1640625,150.625 L90.3125,158.851562 L92.453125,150.625 L95.453125,150.625 L95.453125,162 L93.1484375,162 L93.1484375,158.921875 L93.359375,154.179688 L91.0859375,162 L89.5234375,162 L87.25,154.179688 L87.4609375,158.921875 L87.4609375,162 L85.1640625,162 L85.1640625,150.625 L88.1640625,150.625 Z M102.867188,159.671875 L99.734375,159.671875 L99.125,162 L96.6953125,162 L100.25,150.625 L102.351562,150.625 L105.929688,162 L103.476562,162 L102.867188,159.671875 Z M100.234375,157.757812 L102.359375,157.757812 L101.296875,153.703125 L100.234375,157.757812 Z M113.421875,152.539062 L110.609375,152.539062 L110.609375,162 L108.304688,162 L108.304688,152.539062 L105.539062,152.539062 L105.539062,150.625 L113.421875,150.625 L113.421875,152.539062 Z M117.140625,162 L114.84375,162 L114.84375,150.625 L117.140625,150.625 L117.140625,162 Z M127.078125,157.335938 C127.078125,158.132816 126.979168,158.83333 126.78125,159.4375 C126.583332,160.04167 126.305991,160.544269 125.949219,160.945312 C125.592446,161.346356 125.162763,161.648436 124.660156,161.851562 C124.15755,162.054689 123.601566,162.15625 122.992188,162.15625 C122.382809,162.15625 121.825523,162.054689 121.320312,161.851562 C120.815102,161.648436 120.381512,161.346356 120.019531,160.945312 C119.65755,160.544269 119.376303,160.04167 119.175781,159.4375 C118.975259,158.83333 118.875,158.132816 118.875,157.335938 L118.875,155.445312 C118.875,154.6276 118.973957,153.907555 119.171875,153.285156 C119.369793,152.662757 119.648436,152.143231 120.007812,151.726562 C120.367189,151.309894 120.799477,150.996095 121.304688,150.785156 C121.809898,150.574218 122.367184,150.46875 122.976562,150.46875 C123.585941,150.46875 124.141925,150.574218 124.644531,150.785156 C125.147138,150.996095 125.579425,151.309894 125.941406,151.726562 C126.303387,152.143231 126.583332,152.662757 126.78125,153.285156 C126.979168,153.907555 127.078125,154.6276 127.078125,155.445312 L127.078125,157.335938 Z M124.773438,155.429688 C124.773438,154.888018 124.734375,154.425783 124.65625,154.042969 C124.578125,153.660154 124.463542,153.346355 124.3125,153.101562 C124.161458,152.85677 123.973959,152.677084 123.75,152.5625 C123.526041,152.447916 123.268231,152.390625 122.976563,152.390625 C122.679686,152.390625 122.419272,152.447916 122.195313,152.5625 C121.971353,152.677084 121.783855,152.85677 121.632813,153.101562 C121.48177,153.346355 121.367188,153.660154 121.289063,154.042969 C121.210937,154.425783 121.171875,154.888018 121.171875,155.429688 L121.171875,157.335938 C121.171875,157.851565 121.210937,158.292967 121.289063,158.660156 C121.367188,159.027346 121.483072,159.328124 121.636719,159.5625 C121.790365,159.796876 121.980468,159.968749 122.207031,160.078125 C122.433595,160.187501 122.695311,160.242188 122.992188,160.242188 C123.283856,160.242188 123.540363,160.187501 123.761719,160.078125 C123.983074,159.968749 124.16927,159.796876 124.320313,159.5625 C124.471355,159.328124 124.584635,159.027346 124.660156,158.660156 C124.735677,158.292967 124.773438,157.851565 124.773438,157.335938 L124.773438,155.429688 Z M136.679688,162 L134.382812,162 L131.023438,154.539062 L131.023438,162 L128.726562,162 L128.726562,150.625 L131.023438,150.625 L134.390625,158.09375 L134.390625,150.625 L136.679688,150.625 L136.679688,162 Z M149.921875,158.210938 C149.864583,159.507819 149.500003,160.48958 148.828125,161.15625 C148.156247,161.82292 147.208339,162.15625 145.984375,162.15625 C145.354164,162.15625 144.791669,162.052084 144.296875,161.84375 C143.802081,161.635416 143.385418,161.325523 143.046875,160.914062 C142.708332,160.502602 142.44922,159.993493 142.269531,159.386719 C142.089843,158.779945 142,158.080733 142,157.289062 L142,155.351562 C142,154.559892 142.092447,153.859378 142.277344,153.25 C142.462241,152.640622 142.729165,152.13021 143.078125,151.71875 C143.427085,151.30729 143.848956,150.996095 144.34375,150.785156 C144.838544,150.574218 145.39583,150.46875 146.015625,150.46875 C147.255215,150.46875 148.196611,150.815101 148.839844,151.507812 C149.483076,152.200524 149.848958,153.195306 149.9375,154.492188 L147.632812,154.492188 C147.622396,154.085935 147.58724,153.746095 147.527344,153.472656 C147.467448,153.199217 147.375001,152.981772 147.25,152.820312 C147.124999,152.658853 146.962241,152.544271 146.761719,152.476562 C146.561197,152.408854 146.312501,152.375 146.015625,152.375 C145.708332,152.375 145.446616,152.427083 145.230469,152.53125 C145.014322,152.635417 144.838542,152.803384 144.703125,153.035156 C144.567708,153.266928 144.467448,153.571613 144.402344,153.949219 C144.337239,154.326825 144.304688,154.78906 144.304688,155.335938 L144.304688,157.289062 C144.304688,157.820315 144.330729,158.273436 144.382812,158.648438 C144.434896,159.023439 144.526041,159.329426 144.65625,159.566406 C144.786459,159.803387 144.958332,159.976562 145.171875,160.085938 C145.385418,160.195313 145.656248,160.25 145.984375,160.25 C146.265626,160.25 146.506509,160.220052 146.707031,160.160156 C146.907553,160.10026 147.072916,159.994792 147.203125,159.84375 C147.333334,159.692708 147.432291,159.484376 147.5,159.21875 C147.567709,158.953124 147.609375,158.61719 147.625,158.210938 L149.921875,158.210938 Z M159.34375,157.335938 C159.34375,158.132816 159.244793,158.83333 159.046875,159.4375 C158.848957,160.04167 158.571616,160.544269 158.214844,160.945312 C157.858071,161.346356 157.428388,161.648436 156.925781,161.851562 C156.423175,162.054689 155.867191,162.15625 155.257812,162.15625 C154.648434,162.15625 154.091148,162.054689 153.585938,161.851562 C153.080727,161.648436 152.647137,161.346356 152.285156,160.945312 C151.923175,160.544269 151.641928,160.04167 151.441406,159.4375 C151.240884,158.83333 151.140625,158.132816 151.140625,157.335938 L151.140625,155.445312 C151.140625,154.6276 151.239582,153.907555 151.4375,153.285156 C151.635418,152.662757 151.914061,152.143231 152.273438,151.726562 C152.632814,151.309894 153.065102,150.996095 153.570312,150.785156 C154.075523,150.574218 154.632809,150.46875 155.242188,150.46875 C155.851566,150.46875 156.40755,150.574218 156.910156,150.785156 C157.412763,150.996095 157.84505,151.309894 158.207031,151.726562 C158.569012,152.143231 158.848957,152.662757 159.046875,153.285156 C159.244793,153.907555 159.34375,154.6276 159.34375,155.445312 L159.34375,157.335938 Z M157.039062,155.429688 C157.039062,154.888018 157,154.425783 156.921875,154.042969 C156.84375,153.660154 156.729167,153.346355 156.578125,153.101562 C156.427083,152.85677 156.239584,152.677084 156.015625,152.5625 C155.791666,152.447916 155.533856,152.390625 155.242188,152.390625 C154.945311,152.390625 154.684897,152.447916 154.460938,152.5625 C154.236978,152.677084 154.04948,152.85677 153.898438,153.101562 C153.747395,153.346355 153.632813,153.660154 153.554688,154.042969 C153.476562,154.425783 153.4375,154.888018 153.4375,155.429688 L153.4375,157.335938 C153.4375,157.851565 153.476562,158.292967 153.554688,158.660156 C153.632813,159.027346 153.748697,159.328124 153.902344,159.5625 C154.05599,159.796876 154.246093,159.968749 154.472656,160.078125 C154.69922,160.187501 154.960936,160.242188 155.257812,160.242188 C155.549481,160.242188 155.805988,160.187501 156.027344,160.078125 C156.248699,159.968749 156.434895,159.796876 156.585938,159.5625 C156.73698,159.328124 156.85026,159.027346 156.925781,158.660156 C157.001302,158.292967 157.039062,157.851565 157.039062,157.335938 L157.039062,155.429688 Z M168.945312,162 L166.648438,162 L163.289062,154.539062 L163.289062,162 L160.992188,162 L160.992188,150.625 L163.289062,150.625 L166.65625,158.09375 L166.65625,150.625 L168.945312,150.625 L168.945312,162 Z M175.59375,159.015625 C175.59375,158.817707 175.575521,158.640626 175.539062,158.484375 C175.502604,158.328124 175.425782,158.18099 175.308594,158.042969 C175.191406,157.904947 175.024741,157.770834 174.808594,157.640625 C174.592447,157.510416 174.304689,157.372397 173.945312,157.226562 C173.518227,157.065103 173.110679,156.880209 172.722656,156.671875 C172.334633,156.463541 171.993491,156.217449 171.699219,155.933594 C171.404946,155.649738 171.170574,155.321616 170.996094,154.949219 C170.821614,154.576821 170.734375,154.143232 170.734375,153.648438 C170.734375,153.174477 170.822916,152.740887 171,152.347656 C171.177084,151.954425 171.42578,151.619793 171.746094,151.34375 C172.066408,151.067707 172.446612,150.852865 172.886719,150.699219 C173.326825,150.545572 173.812497,150.46875 174.34375,150.46875 C174.890628,150.46875 175.384112,150.555989 175.824219,150.730469 C176.264325,150.904949 176.639321,151.147134 176.949219,151.457031 C177.259116,151.766929 177.497395,152.136717 177.664062,152.566406 C177.83073,152.996096 177.914062,153.468747 177.914062,153.984375 L175.625,153.984375 C175.625,153.74479 175.600261,153.524741 175.550781,153.324219 C175.501302,153.123697 175.423178,152.951824 175.316406,152.808594 C175.209635,152.665364 175.072918,152.553386 174.90625,152.472656 C174.739582,152.391927 174.539064,152.351562 174.304688,152.351562 C174.085936,152.351562 173.897136,152.385416 173.738281,152.453125 C173.579426,152.520834 173.447917,152.613281 173.34375,152.730469 C173.239583,152.847657 173.161459,152.986978 173.109375,153.148438 C173.057291,153.309897 173.03125,153.48177 173.03125,153.664062 C173.03125,153.851563 173.071614,154.020833 173.152344,154.171875 C173.233073,154.322917 173.347656,154.463541 173.496094,154.59375 C173.644532,154.723959 173.824218,154.846354 174.035156,154.960938 C174.246095,155.075521 174.479165,155.187499 174.734375,155.296875 C175.265628,155.489584 175.729165,155.703124 176.125,155.9375 C176.520835,156.171876 176.851561,156.437499 177.117188,156.734375 C177.382814,157.031251 177.580729,157.365884 177.710938,157.738281 C177.841146,158.110679 177.90625,158.531248 177.90625,159 C177.90625,159.500002 177.82422,159.945311 177.660156,160.335938 C177.496093,160.726564 177.26172,161.055988 176.957031,161.324219 C176.652342,161.592449 176.283856,161.798176 175.851562,161.941406 C175.419269,162.084636 174.932294,162.15625 174.390625,162.15625 C173.901039,162.15625 173.420575,162.082032 172.949219,161.933594 C172.477862,161.785156 172.057294,161.557293 171.6875,161.25 C171.317706,160.942707 171.019532,160.55469 170.792969,160.085938 C170.566405,159.617185 170.453125,159.059899 170.453125,158.414062 L172.757812,158.414062 C172.757812,158.757814 172.791666,159.049478 172.859375,159.289062 C172.927084,159.528647 173.029947,159.722656 173.167969,159.871094 C173.30599,160.019532 173.476561,160.126302 173.679688,160.191406 C173.882814,160.256511 174.11979,160.289062 174.390625,160.289062 C174.609376,160.289062 174.795572,160.256511 174.949219,160.191406 C175.102865,160.126302 175.227864,160.037761 175.324219,159.925781 C175.420573,159.813802 175.489583,159.679688 175.53125,159.523438 C175.572917,159.367187 175.59375,159.197918 175.59375,159.015625 Z M186.828125,150.625 L186.828125,158.4375 C186.828125,159.098962 186.735678,159.66406 186.550781,160.132812 C186.365884,160.601565 186.108075,160.985676 185.777344,161.285156 C185.446613,161.584637 185.052086,161.804687 184.59375,161.945312 C184.135414,162.085938 183.635419,162.15625 183.09375,162.15625 C182.541664,162.15625 182.035159,162.085938 181.574219,161.945312 C181.113279,161.804687 180.71745,161.584637 180.386719,161.285156 C180.055988,160.985676 179.798178,160.601565 179.613281,160.132812 C179.428384,159.66406 179.335938,159.098962 179.335938,158.4375 L179.335938,150.625 L181.648438,150.625 L181.648438,158.4375 C181.648438,158.812502 181.679687,159.117186 181.742188,159.351562 C181.804688,159.585939 181.897135,159.769531 182.019531,159.902344 C182.141928,160.035157 182.292968,160.126302 182.472656,160.175781 C182.652345,160.225261 182.859374,160.25 183.09375,160.25 C183.328126,160.25 183.535155,160.225261 183.714844,160.175781 C183.894532,160.126302 184.04427,160.035157 184.164062,159.902344 C184.283855,159.769531 184.375,159.585939 184.4375,159.351562 C184.5,159.117186 184.53125,158.812502 184.53125,158.4375 L184.53125,150.625 L186.828125,150.625 Z M191.570312,150.625 L193.71875,158.851562 L195.859375,150.625 L198.859375,150.625 L198.859375,162 L196.554688,162 L196.554688,158.921875 L196.765625,154.179688 L194.492188,162 L192.929688,162 L190.65625,154.179688 L190.867188,158.921875 L190.867188,162 L188.570312,162 L188.570312,150.625 L191.570312,150.625 Z M203,158 L203,162 L200.703125,162 L200.703125,150.625 L204.578125,150.625 C205.156253,150.625 205.673175,150.718749 206.128906,150.90625 C206.584638,151.093751 206.971353,151.355467 207.289062,151.691406 C207.606772,152.027345 207.85026,152.425779 208.019531,152.886719 C208.188803,153.347659 208.273438,153.848956 208.273438,154.390625 C208.273438,154.942711 208.188803,155.441404 208.019531,155.886719 C207.85026,156.332033 207.606772,156.710936 207.289062,157.023438 C206.971353,157.335939 206.583336,157.576822 206.125,157.746094 C205.666664,157.915365 205.151045,158 204.578125,158 L203,158 Z M203,156.085938 L204.578125,156.085938 C204.81771,156.085938 205.024739,156.044271 205.199219,155.960938 C205.373699,155.877604 205.516927,155.761719 205.628906,155.613281 C205.740886,155.464843 205.822916,155.287761 205.875,155.082031 C205.927084,154.876301 205.953125,154.651043 205.953125,154.40625 C205.953125,154.161457 205.927084,153.927084 205.875,153.703125 C205.822916,153.479166 205.740886,153.281251 205.628906,153.109375 C205.516927,152.937499 205.373699,152.79948 205.199219,152.695312 C205.024739,152.591145 204.81771,152.539062 204.578125,152.539062 L203,152.539062 L203,156.085938 Z M217.171875,152.539062 L214.359375,152.539062 L214.359375,162 L212.054688,162 L212.054688,152.539062 L209.289062,152.539062 L209.289062,150.625 L217.171875,150.625 L217.171875,152.539062 Z M220.890625,162 L218.59375,162 L218.59375,150.625 L220.890625,150.625 L220.890625,162 Z M230.828125,157.335938 C230.828125,158.132816 230.729168,158.83333 230.53125,159.4375 C230.333332,160.04167 230.055991,160.544269 229.699219,160.945312 C229.342446,161.346356 228.912763,161.648436 228.410156,161.851562 C227.90755,162.054689 227.351566,162.15625 226.742188,162.15625 C226.132809,162.15625 225.575523,162.054689 225.070312,161.851562 C224.565102,161.648436 224.131512,161.346356 223.769531,160.945312 C223.40755,160.544269 223.126303,160.04167 222.925781,159.4375 C222.725259,158.83333 222.625,158.132816 222.625,157.335938 L222.625,155.445312 C222.625,154.6276 222.723957,153.907555 222.921875,153.285156 C223.119793,152.662757 223.398436,152.143231 223.757812,151.726562 C224.117189,151.309894 224.549477,150.996095 225.054688,150.785156 C225.559898,150.574218 226.117184,150.46875 226.726562,150.46875 C227.335941,150.46875 227.891925,150.574218 228.394531,150.785156 C228.897138,150.996095 229.329425,151.309894 229.691406,151.726562 C230.053387,152.143231 230.333332,152.662757 230.53125,153.285156 C230.729168,153.907555 230.828125,154.6276 230.828125,155.445312 L230.828125,157.335938 Z M228.523438,155.429688 C228.523438,154.888018 228.484375,154.425783 228.40625,154.042969 C228.328125,153.660154 228.213542,153.346355 228.0625,153.101562 C227.911458,152.85677 227.723959,152.677084 227.5,152.5625 C227.276041,152.447916 227.018231,152.390625 226.726562,152.390625 C226.429686,152.390625 226.169272,152.447916 225.945312,152.5625 C225.721353,152.677084 225.533855,152.85677 225.382812,153.101562 C225.23177,153.346355 225.117188,153.660154 225.039062,154.042969 C224.960937,154.425783 224.921875,154.888018 224.921875,155.429688 L224.921875,157.335938 C224.921875,157.851565 224.960937,158.292967 225.039062,158.660156 C225.117188,159.027346 225.233072,159.328124 225.386719,159.5625 C225.540365,159.796876 225.730468,159.968749 225.957031,160.078125 C226.183595,160.187501 226.445311,160.242188 226.742188,160.242188 C227.033856,160.242188 227.290363,160.187501 227.511719,160.078125 C227.733074,159.968749 227.91927,159.796876 228.070312,159.5625 C228.221355,159.328124 228.334635,159.027346 228.410156,158.660156 C228.485677,158.292967 228.523438,157.851565 228.523438,157.335938 L228.523438,155.429688 Z M240.429688,162 L238.132812,162 L234.773438,154.539062 L234.773438,162 L232.476562,162 L232.476562,150.625 L234.773438,150.625 L238.140625,158.09375 L238.140625,150.625 L240.429688,150.625 L240.429688,162 Z" id="INFORMATION-CONSUMPT" fill="#FFFFFF" mask="url(#mask-7)"></path>
            </g>
        </g>
    </g>
</svg>