<?xml version="1.0" encoding="utf-8"?>
<!-- Generator: Adobe Illustrator 21.1.0, SVG Export Plug-In . SVG Version: 6.00 Build 0)  -->
<svg version="1.1" id="Isolation_Mode" xmlns="http://www.w3.org/2000/svg" xmlns:xlink="http://www.w3.org/1999/xlink" x="0px"
	 y="0px" viewBox="0 0 562 126" style="enable-background:new 0 0 562 126;" xml:space="preserve">
<style type="text/css">
	.st0{fill:#FFFFFF;}
</style>
<g>
	<path id="Wordmark" class="st0" d="M199.8,35.1h4.6V61l-21.2-28.9h-10.6v3h4.4l1.4,2.1v32.7h-4.6v3h13.1v-3h-4.6V42.4L205,73.6h3.2
		V35.1h4.6v-3h-13V35.1z M150.5,69.4h-5.2V53.5h5.2c5.4,0,9,3.2,9,8.3C159.5,67.4,154.7,69.4,150.5,69.4 M145.3,35.7h5
		c2.7,0,7.1,0.9,7.1,7c0,5.1-3.7,7.3-7.4,7.3h-4.7V35.7z M157,51.4c3.9-1.1,7.5-4.1,7.5-9c0-6.3-4.7-10.3-11.9-10.3h-18.8v3h4.5
		v34.8h-4.5v3.1h19.8c7.7,0,12.8-4.4,12.8-10.8C166.5,55.7,161.9,52.4,157,51.4 M240.6,35.1h5.2l-8.8,14.5l-9.4-14.5h4.7v-3h-16.5v3
		h3.7L232,54.2v15.7h-4.6v3.1h15.9v-3.1h-4.6v-16l11.5-18.7h3.3v-3h-12.9V35.1z M434.1,69.4h-13.5V35.1h4.5v-3h-15.9v3h4.6v34.8
		h-4.6v3.1h28.4v-8.9h-3.6V69.4z M399.1,69.4h-13.4V35.1h4.6v-3h-16v3h4.6v34.8h-4.6v3.1h28.4v-8.9h-3.6V69.4z M302.2,61.5
		l-13.8-29.4H277v3h4.6v34.8H277v3.1h13v-3.1h-4.6V41.6l15.2,32.6l14.5-31.8v27.6h-4.5v3.1h15.9v-3.1H322V35.1h4.6v-3h-10.8
		L302.2,61.5z M462.1,69.8c-7.6,0-12.9-7.1-12.9-17.3c0-10.1,5.3-17.2,12.9-17.2c7.4,0,12.6,7.1,12.6,17.2
		C474.8,62.7,469.6,69.8,462.1,69.8 M462.1,31.4c-11.2,0-20.4,9.5-20.4,21.2c0,11.7,9.1,21.2,20.4,21.2c11.1,0,20.2-9.5,20.2-21.2
		C482.3,40.8,473.3,31.4,462.1,31.4 M514.8,32.1v3h4.6V61l-21.1-28.9h-10.6v3h4.4l1.5,2.1v32.7h-4.6v3.1h13v-3.1h-4.6V42.4L520,73.6
		h3.2V35.1h4.6v-3H514.8z M360.8,69.4h-14.2V53.9h10.7v4.7h3.6V45.8h-3.6v4.6h-10.7V35.7h13.6v5.2h3.5V30.4h-3.6v1.7h-24.9v3h4.5
		v34.8h-4.5v3.1h29.1v-8.9h-3.6V69.4z"/>
	<g id="Icon">
		<path class="st0" d="M103,52.2L64.1,37c-8.4,4.6-15.2,9.9-20.8,15.2c5.6,5.3,12.4,10.6,20.8,15.2L103,52.2z"/>
		<path class="st0" d="M21.8,20.5c0,0,4.1,13.4,17.7,27.9c6-4.6,13.2-8.8,21.8-12.4L21.8,20.5z"/>
		<path class="st0" d="M21.8,84c0,0,4.1-13.4,17.7-27.9c6,4.6,13.2,8.8,21.8,12.4L21.8,84z"/>
	</g>
</g>
</svg>
