<?xml version="1.0" encoding="UTF-8"?>
<svg width="430px" height="177px" viewBox="0 0 430 177" version="1.1" xmlns="http://www.w3.org/2000/svg" xmlns:xlink="http://www.w3.org/1999/xlink">
    <!-- Generator: Sketch 49.1 (51147) - http://www.bohemiancoding.com/sketch -->
    <title>MD</title>
    <desc>Created with Sketch.</desc>
    <defs>
        <linearGradient x1="48.1957923%" y1="89.2748683%" x2="50%" y2="8.06164008%" id="linearGradient-1">
            <stop stop-color="#8D336A" offset="0%"></stop>
            <stop stop-color="#77003E" offset="100%"></stop>
        </linearGradient>
        <path d="M252.284884,177 L0.284883992,177 L177.284884,-2.84217094e-14 L429.284884,0 L252.284884,177 Z" id="path-2"></path>
        <linearGradient x1="50%" y1="30.8298192%" x2="50%" y2="100%" id="linearGradient-4">
            <stop stop-color="#8D336A" offset="0%"></stop>
            <stop stop-color="#77003E" offset="100%"></stop>
        </linearGradient>
        <linearGradient x1="89.2239407%" y1="60.7760593%" x2="10.7760593%" y2="60.7760593%" id="linearGradient-5">
            <stop stop-color="#8D336A" offset="0%"></stop>
            <stop stop-color="#77003E" offset="100%"></stop>
        </linearGradient>
        <path d="M297.284884,132 L252.284884,177 L0.284883992,177 L45.284884,132 L297.284884,132 Z" id="path-6"></path>
    </defs>
    <g id="Comps-5" stroke="none" stroke-width="1" fill="none" fill-rule="evenodd">
        <g id="Landing" transform="translate(-97.000000, -308.000000)">
            <g id="MD" transform="translate(97.000000, 308.000000)">
                <g id="Combined">
                    <mask id="mask-3" fill="white">
                        <use xlink:href="#path-2"></use>
                    </mask>
                    <use id="Mask" fill="url(#linearGradient-1)" xlink:href="#path-2"></use>
                    <path d="M129.736449,-41.7972862 L141.150024,98.7910927 L201.171996,-41.7972862 L251.928832,-41.7972862 L217.956664,153.710526 L179.284789,153.710526 L188.684203,99.5967568 L205.603149,22.3872841 L145.715453,153.710526 L119.531371,153.710526 L104.760863,17.9561318 L93.6158439,102.148026 L84.7535392,153.710526 L46.2159415,153.710526 L80.0538322,-41.7972862 L129.736449,-41.7972862 Z M239.93829,153.710526 L273.77618,-41.7972862 L321.981747,-41.6630088 C333.708693,-41.3944528 343.712256,-38.9551055 351.992733,-34.3448936 C360.273211,-29.7346818 366.897493,-23.647503 371.86578,-16.0831749 C376.834067,-8.51884667 380.190967,0.18671406 381.936581,10.0337685 C383.682195,19.8808229 383.883609,30.1753164 382.540829,40.9175576 L377.975399,71.2642373 C376.185026,82.9016652 373.02954,93.755642 368.508846,103.826493 C363.988153,113.897344 358.124768,122.647664 350.918514,130.077714 C343.712261,137.507764 335.163355,143.326391 325.271542,147.533769 C315.379728,151.741146 304.212441,153.800045 291.769344,153.710526 L239.93829,153.710526 Z M306.67413,-8.89933697 L284.115536,120.946854 L293.649227,121.215409 C301.526871,121.215409 308.173533,119.962166 313.589413,117.455644 C319.005293,114.949121 323.45878,111.435565 326.950009,106.914872 C330.441237,102.394179 333.171516,97.0902768 335.140926,91.0030068 C337.110337,84.9157368 338.587373,78.3362127 339.572079,71.2642373 L344.003231,40.5147255 C344.450825,36.7549411 344.853653,32.9504544 345.211727,29.1011513 C345.569802,25.2518482 345.659319,21.5368789 345.480282,17.9561318 C345.301245,14.3753847 344.78652,10.9961054 343.936092,7.81819233 C343.085665,4.64027931 341.698146,1.84286262 339.773495,-0.574141653 C337.848843,-2.99114593 335.319979,-4.91576861 332.186825,-6.34806743 C329.053671,-7.78036626 325.114909,-8.58602227 320.370419,-8.76505962 L306.67413,-8.89933697 Z" id="MD" fill="url(#linearGradient-4)" mask="url(#mask-3)"></path>
                    <mask id="mask-7" fill="white">
                        <use xlink:href="#path-6"></use>
                    </mask>
                    <use id="Combined-Shape" fill="url(#linearGradient-5)" xlink:href="#path-6"></use>
                </g>
                <path d="M49.9140625,149.625 L52.0625,157.851562 L54.203125,149.625 L57.203125,149.625 L57.203125,161 L54.8984375,161 L54.8984375,157.921875 L55.109375,153.179688 L52.8359375,161 L51.2734375,161 L49,153.179688 L49.2109375,157.921875 L49.2109375,161 L46.9140625,161 L46.9140625,149.625 L49.9140625,149.625 Z M64.921875,156.078125 L61.34375,156.078125 L61.34375,159.09375 L65.578125,159.09375 L65.578125,161 L59.046875,161 L59.046875,149.625 L65.5625,149.625 L65.5625,151.539062 L61.34375,151.539062 L61.34375,154.226562 L64.921875,154.226562 L64.921875,156.078125 Z M74.265625,151.539062 L71.453125,151.539062 L71.453125,161 L69.1484375,161 L69.1484375,151.539062 L66.3828125,151.539062 L66.3828125,149.625 L74.265625,149.625 L74.265625,151.539062 Z M81.015625,158.671875 L77.8828125,158.671875 L77.2734375,161 L74.84375,161 L78.3984375,149.625 L80.5,149.625 L84.078125,161 L81.625,161 L81.015625,158.671875 Z M78.3828125,156.757812 L80.5078125,156.757812 L79.4453125,152.703125 L78.3828125,156.757812 Z M85.140625,161 L85.140625,149.625 L88.1484375,149.625 C88.8046908,149.625 89.4023411,149.733072 89.9414062,149.949219 C90.4804714,150.165366 90.9414043,150.477863 91.3242188,150.886719 C91.7070332,151.295575 92.0039052,151.798174 92.2148438,152.394531 C92.4257823,152.990888 92.53125,153.671871 92.53125,154.4375 L92.53125,156.203125 C92.53125,156.968754 92.4270844,157.648435 92.21875,158.242188 C92.0104156,158.83594 91.7135436,159.337238 91.328125,159.746094 C90.9427064,160.15495 90.4791694,160.466145 89.9375,160.679688 C89.3958306,160.89323 88.79167,161 88.125,161 L85.140625,161 Z M87.4375,151.539062 L87.4375,159.09375 L88.125,159.09375 C88.531252,159.09375 88.8697903,159.040365 89.140625,158.933594 C89.4114597,158.826822 89.6276034,158.656251 89.7890625,158.421875 C89.9505216,158.187499 90.0651038,157.888023 90.1328125,157.523438 C90.2005212,157.158852 90.234375,156.718753 90.234375,156.203125 L90.234375,154.421875 C90.234375,153.901039 90.2005212,153.458335 90.1328125,153.09375 C90.0651038,152.729165 89.9505216,152.432293 89.7890625,152.203125 C89.6276034,151.973957 89.4127618,151.80599 89.1445312,151.699219 C88.8763007,151.592447 88.5442728,151.539062 88.1484375,151.539062 L87.4375,151.539062 Z M99.609375,158.671875 L96.4765625,158.671875 L95.8671875,161 L93.4375,161 L96.9921875,149.625 L99.09375,149.625 L102.671875,161 L100.21875,161 L99.609375,158.671875 Z M96.9765625,156.757812 L99.1015625,156.757812 L98.0390625,152.703125 L96.9765625,156.757812 Z M111.101562,151.539062 L108.289062,151.539062 L108.289062,161 L105.984375,161 L105.984375,151.539062 L103.21875,151.539062 L103.21875,149.625 L111.101562,149.625 L111.101562,151.539062 Z M117.851562,158.671875 L114.71875,158.671875 L114.109375,161 L111.679688,161 L115.234375,149.625 L117.335938,149.625 L120.914062,161 L118.460938,161 L117.851562,158.671875 Z M115.21875,156.757812 L117.34375,156.757812 L116.28125,152.703125 L115.21875,156.757812 Z" id="METADATA" fill="#FFFFFF"></path>
            </g>
        </g>
    </g>
</svg>