<?xml version="1.0" encoding="utf-8"?>
<!-- Generator: Adobe Illustrator 21.1.0, SVG Export Plug-In . SVG Version: 6.00 Build 0)  -->
<svg version="1.1" id="Layer_1" xmlns="http://www.w3.org/2000/svg" xmlns:xlink="http://www.w3.org/1999/xlink" x="0px" y="0px"
	 viewBox="0 0 70 24" style="enable-background:new 0 0 70 24;" xml:space="preserve">
<style type="text/css">
	.st0{fill:#FFFFFF;}
	.st1{fill-rule:evenodd;clip-rule:evenodd;fill:#FFFFFF;}
</style>
<g>
	<polygon class="st0" points="21.6,8.6 19.6,6.6 13.6,12.6 15.6,12.6 19.6,8.6 	"/>
	<polygon class="st0" points="23.6,10.6 21.6,8.6 17.6,12.6 15.6,12.6 17.6,14.6 21.6,10.6 	"/>
	<polygon class="st0" points="23.6,10.6 19.6,14.6 17.6,14.6 19.6,16.6 23.6,12.6 25.6,12.6 	"/>
</g>
<polygon class="st1" points="28.4,14.7 29.1,14.7 29.1,8.7 28.4,8.7 28.4,8.3 32.6,8.3 32.6,8 33.2,8 33.2,9.6 32.6,9.6 32.6,8.9 
	30.5,8.9 30.5,11.3 32.1,11.3 32.1,10.6 32.7,10.6 32.7,12.7 32.1,12.7 32.1,11.9 30.5,11.9 30.5,14.5 32.7,14.5 32.7,13.7 
	33.3,13.7 33.3,15.1 28.4,15.1 28.4,14.7 "/>
<path class="st1" d="M37.4,9.8l-1,2.6h2L37.4,9.8L37.4,9.8z M38.6,15.1v-0.4h0.7L38.6,13h-2.5l-0.7,1.7h0.8v0.4h-2.1v-0.4h0.6
	l2.7-6.6h0.6l2.6,6.6h0.4v0.4H38.6L38.6,15.1z"/>
<path class="st1" d="M47.5,14.8c-1,0.3-1.7,0.4-2.4,0.4c-2.3,0-3.9-1.5-3.9-3.6c0-1.5,0.9-2.9,2.3-3.3c0.5-0.1,1-0.2,1.5-0.2
	c0.6,0,1,0.1,1.7,0.3V8.1h0.6v1.8h-0.6V9.1c-0.5-0.3-0.9-0.4-1.6-0.4c-1.4,0-2.5,1.3-2.5,3c0,1.6,1.2,2.9,2.6,2.9
	c0.3,0,0.4,0,0.8-0.1v-1.7h-0.9v-0.4h3v0.4h-0.8V14.8L47.5,14.8z"/>
<polygon class="st1" points="49,15.1 49,14.7 49.8,14.7 49.8,8.7 49,8.7 49,8.3 51.9,8.3 51.9,8.7 51.2,8.7 51.2,14.5 53.4,14.5 
	53.4,13.7 53.9,13.7 53.9,15.1 49,15.1 "/>
<polygon class="st1" points="54.5,15.1 54.5,14.7 55.3,14.7 55.3,8.7 54.5,8.7 54.5,8.3 58.8,8.3 58.8,8 59.4,8 59.4,9.6 58.8,9.6 
	58.8,8.9 56.7,8.9 56.7,11.3 58.3,11.3 58.3,10.6 58.9,10.6 58.9,12.7 58.3,12.7 58.3,11.9 56.7,11.9 56.7,14.5 58.9,14.5 
	58.9,13.7 59.5,13.7 59.5,15.1 54.5,15.1 "/>
</svg>
