<?xml version="1.0" encoding="UTF-8"?>
<svg width="692px" height="59px" viewBox="0 0 692 59" version="1.1" xmlns="http://www.w3.org/2000/svg" xmlns:xlink="http://www.w3.org/1999/xlink">
    <!-- Generator: Sketch 49.1 (51147) - http://www.bohemiancoding.com/sketch -->
    <title>Input</title>
    <desc>Created with Sketch.</desc>
    <defs></defs>
    <g id="Comps-5" stroke="none" stroke-width="1" fill="none" fill-rule="evenodd">
        <g id="Landing-Full" transform="translate(-100.000000, -142.000000)">
            <g id="Input" transform="translate(100.000000, 142.000000)">
                <rect id="Rectangle-3-Copy-2" fill="#B5B5B5" opacity="0.296308877" x="0" y="58" width="692" height="1"></rect>
                <path d="M84.2972265,33 L81.633164,33 L81.633164,18.0039062 L63.758164,18.0039062 L63.758164,33 L61.1155859,33 L61.1155859,1.71875 L63.758164,1.71875 L63.758164,15.7695313 L81.633164,15.7695313 L81.633164,1.71875 L84.2972265,1.71875 L84.2972265,33 Z M90.426914,21.0332031 C90.426914,19.3430905 90.6739819,17.7819082 91.168125,16.3496094 C91.6622681,14.9173105 92.3605033,13.6819713 93.2628515,12.6435547 C94.1651998,11.605138 95.2537306,10.7923206 96.5284765,10.2050781 C97.8032225,9.61783561 99.2211771,9.32421875 100.782383,9.32421875 C102.372234,9.32421875 103.808093,9.61783561 105.09,10.2050781 C106.371907,10.7923206 107.464019,11.605138 108.366367,12.6435547 C109.268715,13.6819713 109.96337,14.9173105 110.450352,16.3496094 C110.937333,17.7819082 111.18082,19.3430905 111.18082,21.0332031 L111.18082,21.7421875 C111.18082,23.4323001 110.937333,24.9934824 110.450352,26.4257812 C109.96337,27.8580801 109.268715,29.0934193 108.366367,30.1318359 C107.464019,31.1702526 106.375488,31.9794893 105.100742,32.5595703 C103.825996,33.1396513 102.40088,33.4296875 100.825352,33.4296875 C99.2498228,33.4296875 97.8247069,33.1396513 96.5499609,32.5595703 C95.275215,31.9794893 94.1831035,31.1702526 93.2735937,30.1318359 C92.364084,29.0934193 91.6622681,27.8580801 91.168125,26.4257812 C90.6739819,24.9934824 90.426914,23.4323001 90.426914,21.7421875 L90.426914,21.0332031 Z M93.005039,21.7421875 C93.005039,23.0169335 93.1769123,24.2307885 93.520664,25.3837891 C93.8644158,26.5367896 94.3657128,27.5465451 95.0245703,28.4130859 C95.6834278,29.2796267 96.4998258,29.9707005 97.473789,30.4863281 C98.4477522,31.0019557 99.5649286,31.2597656 100.825352,31.2597656 C102.085775,31.2597656 103.19937,31.0019557 104.166172,30.4863281 C105.132974,29.9707005 105.945791,29.2796267 106.604648,28.4130859 C107.263506,27.5465451 107.764803,26.5367896 108.108555,25.3837891 C108.452306,24.2307885 108.62418,23.0169335 108.62418,21.7421875 L108.62418,21.0332031 C108.62418,19.7871031 108.452306,18.5875709 108.108555,17.4345703 C107.764803,16.2815698 107.263506,15.2682335 106.604648,14.3945312 C105.945791,13.520829 105.125812,12.8225938 104.144687,12.2998047 C103.163563,11.7770156 102.042806,11.515625 100.782383,11.515625 C99.5362828,11.515625 98.4298486,11.7770156 97.4630469,12.2998047 C96.4962451,12.8225938 95.6834278,13.520829 95.0245703,14.3945312 C94.3657128,15.2682335 93.8644158,16.2815698 93.520664,17.4345703 C93.1769123,18.5875709 93.005039,19.7871031 93.005039,21.0332031 L93.005039,21.7421875 Z M122.251914,27.6503906 L122.638633,29.6484375 L123.154258,27.5429688 L128.740195,9.75390625 L130.931602,9.75390625 L136.453086,27.3925781 L137.054648,29.8417969 L137.548789,27.5859375 L142.31832,9.75390625 L144.982383,9.75390625 L138.214805,33 L136.023398,33 L130.050742,14.5664062 L129.771445,13.2988281 L129.492148,14.5878906 L123.626914,33 L121.435508,33 L114.689414,9.75390625 L117.331992,9.75390625 L122.251914,27.6503906 Z M169.552305,31.2597656 C170.368715,31.2597656 171.152887,31.1416027 171.904844,30.9052734 C172.656801,30.6689441 173.32639,30.3216169 173.913633,29.8632812 C174.500875,29.4049456 174.984269,28.8391961 175.363828,28.1660156 C175.743387,27.4928352 175.96181,26.712244 176.019102,25.8242188 L178.489805,25.8242188 C178.432513,26.9270888 178.156799,27.9440058 177.662656,28.875 C177.168513,29.8059942 176.516827,30.6080696 175.707578,31.28125 C174.898329,31.9544304 173.963768,32.4807924 172.903867,32.8603516 C171.843966,33.2399108 170.72679,33.4296875 169.552305,33.4296875 C167.919484,33.4296875 166.487207,33.13249 165.25543,32.5380859 C164.023653,31.9436819 162.988832,31.1237031 162.150937,30.078125 C161.313043,29.0325469 160.682841,27.804369 160.260312,26.3935547 C159.837784,24.9827403 159.626523,23.4609457 159.626523,21.828125 L159.626523,20.9257812 C159.626523,19.2929606 159.837784,17.7711659 160.260312,16.3603516 C160.682841,14.9495372 161.309462,13.7249401 162.140195,12.6865234 C162.970929,11.6481068 164.005749,10.828128 165.244687,10.2265625 C166.483626,9.62499699 167.912323,9.32421875 169.53082,9.32421875 C170.77692,9.32421875 171.933484,9.51757619 173.000547,9.90429688 C174.067609,10.2910176 174.99859,10.8424443 175.793516,11.5585938 C176.588441,12.2747432 177.222224,13.1448517 177.694883,14.1689453 C178.167541,15.193039 178.432513,16.3352802 178.489805,17.5957031 L176.019102,17.5957031 C175.96181,16.6503859 175.75771,15.8053423 175.406797,15.0605469 C175.055884,14.3157515 174.590394,13.6783881 174.010312,13.1484375 C173.430231,12.6184869 172.757061,12.2138686 171.990781,11.9345703 C171.224501,11.655272 170.404523,11.515625 169.53082,11.515625 C168.198782,11.515625 167.070864,11.7734349 166.147031,12.2890625 C165.223198,12.8046901 164.467672,13.4993446 163.88043,14.3730469 C163.293187,15.2467492 162.867085,16.2493433 162.602109,17.3808594 C162.337134,18.5123754 162.204648,19.6940043 162.204648,20.9257812 L162.204648,21.828125 C162.204648,23.074225 162.337134,24.2665959 162.602109,25.4052734 C162.867085,26.543951 163.289606,27.5465451 163.869687,28.4130859 C164.449769,29.2796267 165.208876,29.9707005 166.147031,30.4863281 C167.085187,31.0019557 168.220267,31.2597656 169.552305,31.2597656 Z M198.498398,33 C198.355169,32.5989563 198.244167,32.1084013 198.165391,31.5283203 C198.086614,30.9482393 198.032904,30.3574249 198.004258,29.7558594 C197.617537,30.257164 197.159208,30.7298155 196.629258,31.1738281 C196.099307,31.6178408 195.504912,32.0045556 194.846055,32.3339844 C194.187197,32.6634131 193.463897,32.9283844 192.676133,33.1289062 C191.888368,33.3294281 191.036163,33.4296875 190.119492,33.4296875 C188.987976,33.4296875 187.960317,33.2649756 187.036484,32.9355469 C186.112652,32.6061181 185.324899,32.1442087 184.673203,31.5498047 C184.021507,30.9554007 183.516629,30.2571655 183.158555,29.4550781 C182.80048,28.6529908 182.621445,27.7793016 182.621445,26.8339844 C182.621445,25.7024683 182.864932,24.6819707 183.351914,23.7724609 C183.838896,22.8629512 184.540712,22.0895214 185.457383,21.4521484 C186.374054,20.8147755 187.48765,20.3278012 188.798203,19.9912109 C190.108757,19.6546207 191.580422,19.4863281 193.213242,19.4863281 L197.982773,19.4863281 L197.982773,16.84375 C197.982773,15.1822834 197.470734,13.8753303 196.446641,12.9228516 C195.422547,11.9703728 193.929398,11.4941406 191.967148,11.4941406 C191.0648,11.4941406 190.234079,11.6158842 189.474961,11.859375 C188.715843,12.1028658 188.060576,12.439451 187.509141,12.8691406 C186.957706,13.2988303 186.528022,13.7965467 186.220078,14.3623047 C185.912134,14.9280627 185.758164,15.5331999 185.758164,16.1777344 L183.180039,16.15625 C183.180039,15.2825477 183.394881,14.4375041 183.82457,13.6210938 C184.25426,12.8046834 184.859397,12.0778027 185.64,11.4404297 C186.420603,10.8030567 187.358745,10.2910176 188.454453,9.90429688 C189.550162,9.51757619 190.764017,9.32421875 192.096055,9.32421875 C193.327832,9.32421875 194.462911,9.48176926 195.501328,9.796875 C196.539745,10.1119807 197.431337,10.5846323 198.176133,11.2148438 C198.920928,11.8450552 199.501001,12.6328078 199.916367,13.578125 C200.331734,14.5234422 200.539414,15.6262958 200.539414,16.8867188 L200.539414,28.1445312 C200.539414,28.5455749 200.553737,28.9609354 200.582383,29.390625 C200.611029,29.8203146 200.657578,30.2356751 200.722031,30.6367188 C200.786485,31.0377624 200.861679,31.4208966 200.947617,31.7861328 C201.033555,32.151369 201.133815,32.4700507 201.248398,32.7421875 L201.248398,33 L198.498398,33 Z M190.420273,31.1523438 C191.351268,31.1523438 192.214215,31.0341809 193.009141,30.7978516 C193.804066,30.5615223 194.523786,30.2356792 195.16832,29.8203125 C195.812855,29.4049458 196.371443,28.9215522 196.844102,28.3701172 C197.31676,27.8186821 197.696314,27.2207063 197.982773,26.5761719 L197.982773,21.4628906 L193.578477,21.4628906 C192.260762,21.4628906 191.082714,21.5810535 190.044297,21.8173828 C189.00588,22.0537121 188.12861,22.393878 187.412461,22.8378906 C186.696312,23.2819033 186.148465,23.822588 185.768906,24.4599609 C185.389347,25.0973339 185.19957,25.8170533 185.19957,26.6191406 C185.19957,27.2493521 185.321314,27.8401665 185.564805,28.3916016 C185.808295,28.9430366 186.155623,29.4228495 186.606797,29.8310547 C187.057971,30.2392599 187.605817,30.5615223 188.250352,30.7978516 C188.894886,31.0341809 189.618186,31.1523438 190.420273,31.1523438 Z M210.042148,9.75390625 L210.128086,13.7285156 C210.52913,13.0696582 210.991039,12.4681017 211.513828,11.9238281 C212.036617,11.3795546 212.62027,10.9140644 213.264805,10.5273438 C213.909339,10.1406231 214.603994,9.84342552 215.348789,9.63574219 C216.093584,9.42805886 216.881337,9.32421875 217.71207,9.32421875 C218.872232,9.32421875 219.910633,9.48176926 220.827305,9.796875 C221.743976,10.1119807 222.520986,10.6132778 223.158359,11.3007812 C223.795732,11.9882847 224.282707,12.8727159 224.619297,13.9541016 C224.955887,15.0354872 225.12418,16.3424403 225.12418,17.875 L225.12418,33 L222.567539,33 L222.567539,17.8535156 C222.567539,16.6503846 222.438634,15.6477905 222.18082,14.8457031 C221.923007,14.0436158 221.557776,13.399091 221.085117,12.9121094 C220.612459,12.4251278 220.035967,12.0778005 219.355625,11.8701172 C218.675283,11.6624339 217.919757,11.5585938 217.089023,11.5585938 C216.172352,11.5585938 215.341631,11.7125636 214.596836,12.0205078 C213.852041,12.3284521 213.193193,12.7402318 212.620273,13.2558594 C212.047354,13.771487 211.553218,14.3623014 211.137852,15.0283203 C210.722485,15.6943393 210.393061,16.3782517 210.14957,17.0800781 L210.14957,33 L207.59293,33 L207.59293,9.75390625 L210.042148,9.75390625 Z M248.426523,27.6503906 L248.813242,29.6484375 L249.328867,27.5429688 L254.914805,9.75390625 L257.106211,9.75390625 L262.627695,27.3925781 L263.229258,29.8417969 L263.723398,27.5859375 L268.49293,9.75390625 L271.156992,9.75390625 L264.389414,33 L262.198008,33 L256.225352,14.5664062 L255.946055,13.2988281 L255.666758,14.5878906 L249.801523,33 L247.610117,33 L240.864023,9.75390625 L243.506602,9.75390625 L248.426523,27.6503906 Z M285.235898,33.4296875 C283.717662,33.4296875 282.321191,33.1468127 281.046445,32.5810547 C279.771699,32.0152967 278.672426,31.2275441 277.748594,30.2177734 C276.824761,29.2080028 276.105042,28.0084705 275.589414,26.6191406 C275.073786,25.2298108 274.815977,23.7044354 274.815977,22.0429688 L274.815977,21.1191406 C274.815977,19.3287671 275.084529,17.706713 275.621641,16.2529297 C276.158753,14.7991464 276.885633,13.5602265 277.802305,12.5361328 C278.718976,11.5120392 279.77528,10.7207059 280.97125,10.1621094 C282.16722,9.60351283 283.431204,9.32421875 284.763242,9.32421875 C286.23851,9.32421875 287.549044,9.58919006 288.694883,10.1191406 C289.840722,10.6490912 290.803928,11.386714 291.584531,12.3320312 C292.365134,13.2773485 292.955949,14.4016862 293.356992,15.7050781 C293.758036,17.0084701 293.958555,18.433586 293.958555,19.9804688 L293.958555,21.5488281 L277.372617,21.5488281 L277.372617,22.0429688 C277.372617,23.3177147 277.565975,24.517247 277.952695,25.6416016 C278.339416,26.7659561 278.883681,27.7434854 279.585508,28.5742188 C280.287334,29.4049521 281.125216,30.060219 282.09918,30.5400391 C283.073143,31.0198592 284.154512,31.2597656 285.34332,31.2597656 C286.718327,31.2597656 287.932182,31.0091171 288.984922,30.5078125 C290.037662,30.0065079 290.993707,29.2044326 291.853086,28.1015625 L293.464414,29.3261719 C293.077693,29.8847684 292.630107,30.414711 292.121641,30.9160156 C291.613175,31.4173202 291.02236,31.8541648 290.34918,32.2265625 C289.675999,32.5989602 288.916892,32.8925771 288.071836,33.1074219 C287.22678,33.3222667 286.281477,33.4296875 285.235898,33.4296875 Z M284.763242,11.515625 C283.789279,11.515625 282.886944,11.7018211 282.056211,12.0742187 C281.225478,12.4466164 280.491435,12.9765591 279.854063,13.6640625 C279.21669,14.3515659 278.693908,15.1787061 278.285703,16.1455078 C277.877498,17.1123095 277.601785,18.1829368 277.458555,19.3574219 L291.401914,19.3574219 L291.401914,19.078125 C291.373268,18.1041618 291.215718,17.1624394 290.929258,16.2529297 C290.642798,15.3434199 290.223857,14.5377639 289.672422,13.8359375 C289.120987,13.1341111 288.437074,12.5719422 287.620664,12.1494141 C286.804254,11.7268859 285.851789,11.515625 284.763242,11.515625 Z M312.620273,13.6855469 C313.021317,13.0266894 313.486807,12.4287136 314.016758,11.8916016 C314.546708,11.3544895 315.130361,10.8961608 315.767734,10.5166016 C316.405107,10.1370424 317.0926,9.84342552 317.830234,9.63574219 C318.567868,9.42805886 319.35204,9.32421875 320.182773,9.32421875 C321.342935,9.32421875 322.381337,9.48176926 323.298008,9.796875 C324.214679,10.1119807 324.99169,10.6132778 325.629063,11.3007812 C326.266435,11.9882847 326.75341,12.8727159 327.09,13.9541016 C327.42659,15.0354872 327.594883,16.3424403 327.594883,17.875 L327.594883,33 L325.038242,33 L325.038242,17.8535156 C325.038242,16.6503846 324.909337,15.6477905 324.651523,14.8457031 C324.39371,14.0436158 324.028479,13.399091 323.55582,12.9121094 C323.083162,12.4251278 322.50667,12.0778005 321.826328,11.8701172 C321.145986,11.6624339 320.39046,11.5585938 319.559727,11.5585938 C318.643055,11.5585938 317.812334,11.7125636 317.067539,12.0205078 C316.322744,12.3284521 315.663896,12.7402318 315.090977,13.2558594 C314.518057,13.771487 314.023921,14.3623014 313.608555,15.0283203 C313.193188,15.6943393 312.863764,16.3782517 312.620273,17.0800781 L312.620273,33 L310.063633,33 L310.063633,0 L312.620273,0 L312.620273,13.6855469 Z M343.414023,33.4296875 C341.895787,33.4296875 340.499316,33.1468127 339.22457,32.5810547 C337.949824,32.0152967 336.850552,31.2275441 335.926719,30.2177734 C335.002886,29.2080028 334.283167,28.0084705 333.767539,26.6191406 C333.251911,25.2298108 332.994102,23.7044354 332.994102,22.0429688 L332.994102,21.1191406 C332.994102,19.3287671 333.262654,17.706713 333.799766,16.2529297 C334.336878,14.7991464 335.063758,13.5602265 335.98043,12.5361328 C336.897101,11.5120392 337.953405,10.7207059 339.149375,10.1621094 C340.345345,9.60351283 341.609329,9.32421875 342.941367,9.32421875 C344.416635,9.32421875 345.727169,9.58919006 346.873008,10.1191406 C348.018847,10.6490912 348.982053,11.386714 349.762656,12.3320312 C350.543259,13.2773485 351.134074,14.4016862 351.535117,15.7050781 C351.936161,17.0084701 352.13668,18.433586 352.13668,19.9804688 L352.13668,21.5488281 L335.550742,21.5488281 L335.550742,22.0429688 C335.550742,23.3177147 335.7441,24.517247 336.13082,25.6416016 C336.517541,26.7659561 337.061806,27.7434854 337.763633,28.5742188 C338.465459,29.4049521 339.303341,30.060219 340.277305,30.5400391 C341.251268,31.0198592 342.332637,31.2597656 343.521445,31.2597656 C344.896452,31.2597656 346.110307,31.0091171 347.163047,30.5078125 C348.215787,30.0065079 349.171832,29.2044326 350.031211,28.1015625 L351.642539,29.3261719 C351.255818,29.8847684 350.808232,30.414711 350.299766,30.9160156 C349.7913,31.4173202 349.200485,31.8541648 348.527305,32.2265625 C347.854124,32.5989602 347.095017,32.8925771 346.249961,33.1074219 C345.404905,33.3222667 344.459602,33.4296875 343.414023,33.4296875 Z M342.941367,11.515625 C341.967404,11.515625 341.065069,11.7018211 340.234336,12.0742187 C339.403603,12.4466164 338.66956,12.9765591 338.032188,13.6640625 C337.394815,14.3515659 336.872033,15.1787061 336.463828,16.1455078 C336.055623,17.1123095 335.77991,18.1829368 335.63668,19.3574219 L349.580039,19.3574219 L349.580039,19.078125 C349.551393,18.1041618 349.393843,17.1624394 349.107383,16.2529297 C348.820923,15.3434199 348.401982,14.5377639 347.850547,13.8359375 C347.299112,13.1341111 346.615199,12.5719422 345.798789,12.1494141 C344.982379,11.7268859 344.029914,11.515625 342.941367,11.515625 Z M360.221445,33 L357.64332,33 L357.64332,0 L360.221445,0 L360.221445,33 Z M386.095273,21.6132812 C386.095273,23.3606858 385.898335,24.9576751 385.504453,26.4042969 C385.110571,27.8509187 384.534079,29.0934193 383.774961,30.1318359 C383.015843,31.1702526 382.088443,31.9794893 380.992734,32.5595703 C379.897026,33.1396513 378.647364,33.4296875 377.243711,33.4296875 C375.582244,33.4296875 374.146386,33.13249 372.936094,32.5380859 C371.725801,31.9436819 370.726788,31.1237031 369.939023,30.078125 L369.939023,41.9375 L367.382383,41.9375 L367.382383,9.75390625 L369.767148,9.75390625 L369.896055,13.0410156 C370.683819,11.8808536 371.679252,10.9713575 372.882383,10.3125 C374.085514,9.65364254 375.517791,9.32421875 377.179258,9.32421875 C378.597234,9.32421875 379.861218,9.60351283 380.97125,10.1621094 C382.081282,10.7207059 383.015843,11.5156198 383.774961,12.546875 C384.534079,13.5781302 385.110571,14.8206308 385.504453,16.2744141 C385.898335,17.7281974 386.095273,19.3574129 386.095273,21.1621094 L386.095273,21.6132812 Z M383.517148,21.1621094 C383.517148,19.8157485 383.377501,18.5553444 383.098203,17.3808594 C382.818905,16.2063743 382.396383,15.1894574 381.830625,14.3300781 C381.264867,13.4706988 380.545148,12.7939478 379.671445,12.2998047 C378.797743,11.8056616 377.773665,11.5585938 376.59918,11.5585938 C375.668185,11.5585938 374.844626,11.6803373 374.128477,11.9238281 C373.412327,12.1673189 372.785706,12.493162 372.248594,12.9013672 C371.711482,13.3095724 371.253153,13.7822239 370.873594,14.3193359 C370.494035,14.856448 370.182514,15.4186169 369.939023,16.0058594 L369.939023,27.15625 C370.21116,27.7434925 370.551326,28.2877579 370.959531,28.7890625 C371.367736,29.2903671 371.847549,29.723631 372.398984,30.0888672 C372.950419,30.4541034 373.577041,30.7405589 374.278867,30.9482422 C374.980694,31.1559255 375.768446,31.2597656 376.642148,31.2597656 C377.816633,31.2597656 378.83355,31.0126978 379.69293,30.5185547 C380.552309,30.0244116 381.264867,29.3440799 381.830625,28.4775391 C382.396383,27.6109983 382.818905,26.5905007 383.098203,25.4160156 C383.377501,24.2415306 383.517148,22.9739651 383.517148,21.6132812 L383.517148,21.1621094 Z M396.715195,24.3203125 C396.729518,23.4036413 396.797551,22.6015659 396.919297,21.9140625 C397.041042,21.2265591 397.23798,20.5891956 397.510117,20.0019531 C397.782254,19.4147106 398.143904,18.8489611 398.595078,18.3046875 C399.046252,17.7604139 399.60126,17.1660188 400.260117,16.5214844 C400.833037,15.9485648 401.359399,15.4150415 401.839219,14.9208984 C402.319039,14.4267553 402.734399,13.9111355 403.085313,13.3740234 C403.436226,12.8369114 403.708358,12.246097 403.901719,11.6015625 C404.095079,10.957028 404.191758,10.2050824 404.191758,9.34570313 C404.191758,8.48632383 404.077176,7.70573268 403.848008,7.00390625 C403.61884,6.30207982 403.278674,5.69694265 402.8275,5.18847656 C402.376326,4.68001048 401.810576,4.28613421 401.130234,4.00683594 C400.449892,3.72753767 399.665721,3.58789062 398.777695,3.58789062 C397.946962,3.58789062 397.180694,3.7096342 396.478867,3.953125 C395.777041,4.1966158 395.168323,4.55468514 394.652695,5.02734375 C394.137068,5.50000236 393.73603,6.0729133 393.44957,6.74609375 C393.163111,7.4192742 393.012721,8.18554258 392.998398,9.04492188 L390.441758,9.04492188 C390.456081,7.82746787 390.681665,6.7353564 391.118516,5.76855469 C391.555367,4.80175298 392.149762,3.98893559 392.901719,3.33007812 C393.653676,2.67122066 394.534526,2.1663429 395.544297,1.81542969 C396.554068,1.46451647 397.631856,1.2890625 398.777695,1.2890625 C400.066764,1.2890625 401.205425,1.48600063 402.193711,1.87988281 C403.181997,2.27376499 404.012718,2.82161107 404.685898,3.5234375 C405.359079,4.22526393 405.871118,5.07030756 406.222031,6.05859375 C406.572944,7.04687994 406.748398,8.12824934 406.748398,9.30273438 C406.748398,10.2623746 406.626655,11.1468058 406.383164,11.9560547 C406.139673,12.7653035 405.795927,13.5315719 405.351914,14.2548828 C404.907901,14.9781937 404.374378,15.6764289 403.751328,16.3496094 C403.128278,17.0227898 402.444366,17.7031216 401.69957,18.390625 C401.241235,18.7773457 400.85452,19.1962868 400.539414,19.6474609 C400.224308,20.0986351 399.97366,20.5748673 399.787461,21.0761719 C399.601262,21.5774765 399.468776,22.1002577 399.39,22.6445313 C399.311224,23.1888048 399.271836,23.747393 399.271836,24.3203125 L396.715195,24.3203125 Z M396.371445,31.4960938 C396.371445,31.0091121 396.525415,30.5973324 396.833359,30.2607422 C397.141304,29.924152 397.574568,29.7558594 398.133164,29.7558594 C398.677438,29.7558594 399.110702,29.924152 399.432969,30.2607422 C399.755236,30.5973324 399.916367,31.0091121 399.916367,31.4960938 C399.916367,31.9687524 399.755236,32.3662093 399.432969,32.6884766 C399.110702,33.0107438 398.677438,33.171875 398.133164,33.171875 C397.574568,33.171875 397.141304,33.0107438 396.833359,32.6884766 C396.525415,32.3662093 396.371445,31.9687524 396.371445,31.4960938 Z" id="How-can-we-help?" fill="#FFFFFF"></path>
                <path d="M14.2002,26.6321 C11.1162,26.6321 8.3752,25.5091 6.0542,23.2941 C3.8572,21.0971 2.7002,18.2771 2.7002,15.1321 C2.7002,12.0481 3.8232,9.3071 6.0382,6.9871 C8.2362,4.7891 11.0552,3.6321 14.2002,3.6321 C17.2842,3.6321 20.0242,4.7551 22.3452,6.9701 C24.5432,9.1681 25.7002,11.9871 25.7002,15.1321 C25.7002,18.2161 24.5772,20.9571 22.3622,23.2781 C20.0252,25.5091 17.2842,26.6321 14.2002,26.6321 Z M23.2542,26.0791 L31.7532,34.5781 C32.3982,35.2231 33.0022,35.2231 33.6462,34.5781 C33.9642,34.2611 34.1002,33.9781 34.1002,33.6321 C34.1002,33.3011 33.9842,33.0121 33.7002,32.6321 L25.2462,24.1861 L25.9932,23.1421 C27.6542,20.6991 28.5002,18.0011 28.5002,15.1321 C28.5002,13.2121 28.1112,11.3621 27.3432,9.6351 C26.5082,7.7551 25.5272,6.2671 24.3462,5.0861 C23.0332,3.7731 21.4672,2.7391 19.8192,2.0981 C16.3072,0.6341 12.2912,0.6351 8.7922,2.0931 C7.0552,2.7341 5.5012,3.7381 4.1532,5.0861 C2.8402,6.4001 1.8062,7.9651 1.1662,9.6131 C0.3892,11.3621 0.0002,13.2121 0.0002,15.1321 C0.0002,17.0531 0.3892,18.9031 1.1572,20.6291 C1.9922,22.5101 2.9732,23.9981 4.1532,25.1791 C5.4672,26.4921 7.0332,27.5251 8.6812,28.1661 C10.4292,28.9431 12.2792,29.3321 14.2002,29.3321 C17.1662,29.3321 19.8622,28.4881 22.2112,26.8241 L23.2542,26.0791 Z" id="Fill-1" fill="#FFFFFF"></path>
            </g>
        </g>
    </g>
</svg>