<?xml version="1.0" encoding="UTF-8"?>
<svg width="430px" height="177px" viewBox="0 0 430 177" version="1.1" xmlns="http://www.w3.org/2000/svg" xmlns:xlink="http://www.w3.org/1999/xlink">
    <!-- Generator: Sketch 49.1 (51147) - http://www.bohemiancoding.com/sketch -->
    <title>RE</title>
    <desc>Created with Sketch.</desc>
    <defs>
        <linearGradient x1="48.1201863%" y1="27.3094098%" x2="46.4180286%" y2="94.6900626%" id="linearGradient-1">
            <stop stop-color="#085358" offset="0%"></stop>
            <stop stop-color="#218E94" offset="100%"></stop>
        </linearGradient>
        <path d="M252.284884,177 L0.284883992,177 L177.284884,-2.84217094e-14 L429.284884,0 L252.284884,177 Z" id="path-2"></path>
        <linearGradient x1="46.4180286%" y1="94.6900626%" x2="48.1201863%" y2="27.3094098%" id="linearGradient-4">
            <stop stop-color="#085358" offset="0%"></stop>
            <stop stop-color="#218E94" offset="100%"></stop>
        </linearGradient>
        <linearGradient x1="2.68554688%" y1="50.3557478%" x2="97.3144531%" y2="50.3557478%" id="linearGradient-5">
            <stop stop-color="#085358" offset="0%"></stop>
            <stop stop-color="#218E94" offset="100%"></stop>
        </linearGradient>
        <path d="M297.284884,132 L252.284884,177 L0.284883992,177 L45.284884,132 L297.284884,132 Z" id="path-6"></path>
    </defs>
    <g id="Comps-5" stroke="none" stroke-width="1" fill="none" fill-rule="evenodd">
        <g id="Landing" transform="translate(-145.000000, -595.000000)">
            <g id="RE" transform="translate(145.000000, 595.000000)">
                <g id="Combined">
                    <mask id="mask-3" fill="white">
                        <use xlink:href="#path-2"></use>
                    </mask>
                    <use id="Mask" fill="url(#linearGradient-1)" xlink:href="#path-2"></use>
                    <path d="M151.304073,82.2749794 L131.699581,82.2749794 L119.346066,153.710526 L80.808468,153.710526 L114.646359,-41.7972862 L173.72839,-41.6630088 C182.50122,-41.3944528 190.266849,-39.8726581 197.025509,-37.0975792 C203.784169,-34.3225002 209.423761,-30.4508755 213.944454,-25.4825889 C218.465147,-20.5143024 221.73253,-14.516641 223.7467,-7.48942486 C225.760871,-0.462208731 226.409871,7.43769599 225.693722,16.2105263 C224.619498,28.8326597 221.150701,39.9328092 215.287228,49.5113076 C209.423754,59.089806 200.718194,66.609262 189.170284,72.0699013 L208.774777,151.562089 L208.774777,153.710526 L167.417355,153.710526 L151.304073,82.2749794 Z M137.33923,49.3770302 L157.615109,49.6455849 C162.001524,49.5560662 165.895528,48.7056516 169.297238,47.0943154 C172.698947,45.4829792 175.608261,43.3121838 178.025265,40.5818642 C180.442269,37.8515446 182.389271,34.6736792 183.866329,31.0481728 C185.343387,27.4226664 186.350457,23.5510417 186.88757,19.4331826 C187.335163,16.3000289 187.536577,13.1221635 187.491818,9.89949116 C187.447058,6.6768188 186.909954,3.72274677 185.880489,1.03718647 C184.851025,-1.64837383 183.262092,-3.88630718 181.113644,-5.67668072 C178.965196,-7.46705425 175.966365,-8.49650359 172.117062,-8.76505962 L147.544308,-8.89933697 L137.33923,49.3770302 Z M335.515011,69.1157998 L275.89587,69.1157998 L266.899288,120.946854 L337.529171,120.946854 L331.755245,153.710526 L222.722042,153.710526 L256.559933,-41.7972862 L365.458859,-41.7972862 L359.684933,-8.89933697 L289.457882,-8.89933697 L281.401241,37.2920693 L341.154659,37.2920693 L335.515011,69.1157998 Z" id="RE" fill="url(#linearGradient-4)" mask="url(#mask-3)"></path>
                    <mask id="mask-7" fill="white">
                        <use xlink:href="#path-6"></use>
                    </mask>
                    <use id="Combined-Shape" fill="url(#linearGradient-5)" xlink:href="#path-6"></use>
                </g>
                <path d="M60.359375,158.84375 L59.21875,158.84375 L59.21875,163 L56.921875,163 L56.921875,151.625 L60.5859375,151.625 C61.1536487,151.625 61.660154,151.699218 62.1054688,151.847656 C62.5507835,151.996094 62.9283839,152.214842 63.2382812,152.503906 C63.5481786,152.79297 63.7851554,153.15104 63.9492188,153.578125 C64.1132821,154.00521 64.1953125,154.499997 64.1953125,155.0625 C64.1953125,155.47396 64.1575525,155.84505 64.0820312,156.175781 C64.00651,156.506512 63.8971361,156.80078 63.7539062,157.058594 C63.6106764,157.316408 63.437501,157.541666 63.234375,157.734375 C63.031249,157.927084 62.8020846,158.093749 62.546875,158.234375 L64.5390625,162.890625 L64.5390625,163 L62.0703125,163 L60.359375,158.84375 Z M59.21875,156.929688 L60.5234375,156.929688 C60.9817731,156.929688 61.3255197,156.777345 61.5546875,156.472656 C61.7838553,156.167967 61.8984375,155.760419 61.8984375,155.25 C61.8984375,154.989582 61.8736982,154.753907 61.8242188,154.542969 C61.7747393,154.33203 61.6966151,154.152344 61.5898438,154.003906 C61.4830724,153.855468 61.346355,153.740886 61.1796875,153.660156 C61.01302,153.579427 60.8151053,153.539062 60.5859375,153.539062 L59.21875,153.539062 L59.21875,156.929688 Z M71.6484375,158.078125 L68.0703125,158.078125 L68.0703125,161.09375 L72.3046875,161.09375 L72.3046875,163 L65.7734375,163 L65.7734375,151.625 L72.2890625,151.625 L72.2890625,153.539062 L68.0703125,153.539062 L68.0703125,156.226562 L71.6484375,156.226562 L71.6484375,158.078125 Z M75.921875,159 L75.921875,163 L73.625,163 L73.625,151.625 L77.5,151.625 C78.0781279,151.625 78.5950498,151.718749 79.0507812,151.90625 C79.5065127,152.093751 79.8932276,152.355467 80.2109375,152.691406 C80.5286474,153.027345 80.7721346,153.425779 80.9414062,153.886719 C81.1106779,154.347659 81.1953125,154.848956 81.1953125,155.390625 C81.1953125,155.942711 81.1106779,156.441404 80.9414062,156.886719 C80.7721346,157.332033 80.5286474,157.710936 80.2109375,158.023438 C79.8932276,158.335939 79.5052106,158.576822 79.046875,158.746094 C78.5885394,158.915365 78.0729195,159 77.5,159 L75.921875,159 Z M75.921875,157.085938 L77.5,157.085938 C77.7395845,157.085938 77.9466137,157.044271 78.1210938,156.960938 C78.2955738,156.877604 78.4388015,156.761719 78.5507812,156.613281 C78.662761,156.464843 78.7447914,156.287761 78.796875,156.082031 C78.8489586,155.876301 78.875,155.651043 78.875,155.40625 C78.875,155.161457 78.8489586,154.927084 78.796875,154.703125 C78.7447914,154.479166 78.662761,154.281251 78.5507812,154.109375 C78.4388015,153.937499 78.2955738,153.79948 78.1210938,153.695312 C77.9466137,153.591145 77.7395845,153.539062 77.5,153.539062 L75.921875,153.539062 L75.921875,157.085938 Z M90.734375,158.335938 C90.734375,159.132816 90.6354177,159.83333 90.4375,160.4375 C90.2395823,161.04167 89.9622414,161.544269 89.6054688,161.945312 C89.2486961,162.346356 88.8190129,162.648436 88.3164062,162.851562 C87.8137996,163.054689 87.2578155,163.15625 86.6484375,163.15625 C86.0390595,163.15625 85.4817734,163.054689 84.9765625,162.851562 C84.4713516,162.648436 84.0377622,162.346356 83.6757812,161.945312 C83.3138003,161.544269 83.0325531,161.04167 82.8320312,160.4375 C82.6315094,159.83333 82.53125,159.132816 82.53125,158.335938 L82.53125,156.445312 C82.53125,155.6276 82.6302073,154.907555 82.828125,154.285156 C83.0260427,153.662757 83.3046857,153.143231 83.6640625,152.726562 C84.0234393,152.309894 84.4557266,151.996095 84.9609375,151.785156 C85.4661484,151.574218 86.0234345,151.46875 86.6328125,151.46875 C87.2421905,151.46875 87.7981746,151.574218 88.3007812,151.785156 C88.8033879,151.996095 89.2356753,152.309894 89.5976562,152.726562 C89.9596372,153.143231 90.2395823,153.662757 90.4375,154.285156 C90.6354177,154.907555 90.734375,155.6276 90.734375,156.445312 L90.734375,158.335938 Z M88.4296875,156.429688 C88.4296875,155.888018 88.3906254,155.425783 88.3125,155.042969 C88.2343746,154.660154 88.1197924,154.346355 87.96875,154.101562 C87.8177076,153.85677 87.6302095,153.677084 87.40625,153.5625 C87.1822905,153.447916 86.9244806,153.390625 86.6328125,153.390625 C86.335936,153.390625 86.075522,153.447916 85.8515625,153.5625 C85.627603,153.677084 85.4401049,153.85677 85.2890625,154.101562 C85.1380201,154.346355 85.0234379,154.660154 84.9453125,155.042969 C84.8671871,155.425783 84.828125,155.888018 84.828125,156.429688 L84.828125,158.335938 C84.828125,158.851565 84.8671871,159.292967 84.9453125,159.660156 C85.0234379,160.027346 85.1393221,160.328124 85.2929688,160.5625 C85.4466154,160.796876 85.6367176,160.968749 85.8632812,161.078125 C86.0898449,161.187501 86.351561,161.242188 86.6484375,161.242188 C86.9401056,161.242188 87.1966135,161.187501 87.4179688,161.078125 C87.639324,160.968749 87.8255201,160.796876 87.9765625,160.5625 C88.1276049,160.328124 88.240885,160.027346 88.3164062,159.660156 C88.3919275,159.292967 88.4296875,158.851565 88.4296875,158.335938 L88.4296875,156.429688 Z M95.828125,158.84375 L94.6875,158.84375 L94.6875,163 L92.390625,163 L92.390625,151.625 L96.0546875,151.625 C96.6223987,151.625 97.128904,151.699218 97.5742188,151.847656 C98.0195335,151.996094 98.3971339,152.214842 98.7070312,152.503906 C99.0169286,152.79297 99.2539054,153.15104 99.4179688,153.578125 C99.5820321,154.00521 99.6640625,154.499997 99.6640625,155.0625 C99.6640625,155.47396 99.6263025,155.84505 99.5507812,156.175781 C99.47526,156.506512 99.3658861,156.80078 99.2226562,157.058594 C99.0794264,157.316408 98.906251,157.541666 98.703125,157.734375 C98.499999,157.927084 98.2708346,158.093749 98.015625,158.234375 L100.007812,162.890625 L100.007812,163 L97.5390625,163 L95.828125,158.84375 Z M94.6875,156.929688 L95.9921875,156.929688 C96.4505231,156.929688 96.7942697,156.777345 97.0234375,156.472656 C97.2526053,156.167967 97.3671875,155.760419 97.3671875,155.25 C97.3671875,154.989582 97.3424482,154.753907 97.2929688,154.542969 C97.2434893,154.33203 97.1653651,154.152344 97.0585938,154.003906 C96.9518224,153.855468 96.815105,153.740886 96.6484375,153.660156 C96.48177,153.579427 96.2838553,153.539062 96.0546875,153.539062 L94.6875,153.539062 L94.6875,156.929688 Z M108.609375,153.539062 L105.796875,153.539062 L105.796875,163 L103.492188,163 L103.492188,153.539062 L100.726562,153.539062 L100.726562,151.625 L108.609375,151.625 L108.609375,153.539062 Z M112.328125,163 L110.03125,163 L110.03125,151.625 L112.328125,151.625 L112.328125,163 Z M122.210937,163 L119.914062,163 L116.554688,155.539062 L116.554688,163 L114.257812,163 L114.257812,151.625 L116.554688,151.625 L119.921875,159.09375 L119.921875,151.625 L122.210937,151.625 L122.210937,163 Z M131.789062,161.710938 C131.66927,161.841146 131.507814,161.989583 131.304688,162.15625 C131.101561,162.322917 130.847658,162.480468 130.542969,162.628906 C130.23828,162.777344 129.88021,162.902343 129.46875,163.003906 C129.05729,163.105469 128.583336,163.15625 128.046875,163.15625 C127.411455,163.15625 126.838544,163.057293 126.328125,162.859375 C125.817706,162.661457 125.38021,162.361981 125.015625,161.960938 C124.65104,161.559894 124.371095,161.053388 124.175781,160.441406 C123.980468,159.829424 123.882812,159.109379 123.882812,158.28125 L123.882812,156.359375 C123.882812,155.531246 123.976562,154.811201 124.164062,154.199219 C124.351563,153.587237 124.618488,153.078127 124.964844,152.671875 C125.3112,152.265623 125.73307,151.963543 126.230469,151.765625 C126.727867,151.567707 127.286455,151.46875 127.90625,151.46875 C128.552087,151.46875 129.109373,151.549478 129.578125,151.710938 C130.046877,151.872397 130.437498,152.11328 130.75,152.433594 C131.062502,152.753908 131.302083,153.149737 131.46875,153.621094 C131.635418,154.09245 131.742187,154.635414 131.789062,155.25 L129.554688,155.25 C129.523437,154.890623 129.472657,154.591147 129.402344,154.351562 C129.332031,154.111978 129.233074,153.920574 129.105469,153.777344 C128.977864,153.634114 128.821616,153.53125 128.636719,153.46875 C128.451822,153.40625 128.231772,153.375 127.976562,153.375 C127.674478,153.375 127.411459,153.428385 127.1875,153.535156 C126.963541,153.641928 126.777344,153.813801 126.628906,154.050781 C126.480468,154.287762 126.369792,154.59505 126.296875,154.972656 C126.223958,155.350262 126.1875,155.807289 126.1875,156.34375 L126.1875,158.28125 C126.1875,158.822919 126.227864,159.281248 126.308594,159.65625 C126.389323,160.031252 126.511718,160.337238 126.675781,160.574219 C126.839845,160.811199 127.046874,160.983072 127.296875,161.089844 C127.546876,161.196615 127.841144,161.25 128.179688,161.25 C128.382814,161.25 128.555989,161.234375 128.699219,161.203125 C128.842449,161.171875 128.964843,161.134115 129.066406,161.089844 C129.167969,161.045573 129.251302,161 129.316406,160.953125 C129.381511,160.90625 129.4375,160.867188 129.484375,160.835938 L129.484375,158.75 L127.875,158.75 L127.875,157.015625 L131.789062,157.015625 L131.789062,161.710938 Z" id="REPORTING" fill="#FFFFFF"></path>
            </g>
        </g>
    </g>
</svg>